<svg width="28" height="28" viewBox="0 0 28 28" fill="none" xmlns="http://www.w3.org/2000/svg">
<g clip-path="url(#clip0_4953_41501)">
<path d="M14.1667 28.3334C21.9907 28.3334 28.3334 21.9907 28.3334 14.1667C28.3334 6.34264 21.9907 0 14.1667 0C6.34264 0 0 6.34264 0 14.1667C0 21.9907 6.34264 28.3334 14.1667 28.3334Z" fill="#FFEFE5"/>
<path fill-rule="evenodd" clip-rule="evenodd" d="M13.8608 1.19442C6.86526 1.19442 1.19417 6.86549 1.19417 13.8611C1.19417 20.8567 6.86526 26.5277 13.8608 26.5277C20.8564 26.5277 26.5275 20.8567 26.5275 13.8611C26.5275 6.86549 20.8564 1.19442 13.8608 1.19442ZM-0.13916 13.8611C-0.13916 6.12907 6.12884 -0.138916 13.8608 -0.138916C21.5928 -0.138916 27.8608 6.12907 27.8608 13.8611C27.8608 21.593 21.5928 27.8611 13.8608 27.8611C6.12884 27.8611 -0.13916 21.593 -0.13916 13.8611Z" fill="#FF6300"/>
<path d="M17.8356 19.6952L18.8256 18.7052L17.3407 12.2705L20.063 9.5482C20.4739 9.13733 20.4739 8.4741 20.063 8.06324C19.6522 7.65242 18.989 7.65242 18.5781 8.06324L15.8558 10.7856L9.42109 9.30071L8.43115 10.2907L13.6284 13.013L10.906 15.7354L9.17361 15.4879L8.43115 16.2303L10.6585 17.4678L11.8959 19.6952L12.6384 18.9527L12.3909 17.2203L15.1133 14.4979L17.8356 19.6952Z" fill="#5C0FD9"/>
</g>
<defs>
<clipPath id="clip0_4953_41501">
<rect width="28" height="28" fill="white"/>
</clipPath>
</defs>
</svg>
