<svg width="30" height="30" viewBox="0 0 30 30" fill="none" xmlns="http://www.w3.org/2000/svg">
<circle cx="15" cy="15" r="12.5" fill="#FFEFE5"/>
<path fill-rule="evenodd" clip-rule="evenodd" d="M15 3.97059C8.90862 3.97059 3.97059 8.90862 3.97059 15C3.97059 21.0914 8.90862 26.0294 15 26.0294C21.0914 26.0294 26.0294 21.0914 26.0294 15C26.0294 8.90862 21.0914 3.97059 15 3.97059ZM2.5 15C2.5 8.09644 8.09644 2.5 15 2.5C21.9036 2.5 27.5 8.09644 27.5 15C27.5 21.9036 21.9036 27.5 15 27.5C8.09644 27.5 2.5 21.9036 2.5 15Z" fill="#FF6300"/>
<path fill-rule="evenodd" clip-rule="evenodd" d="M10.1831 15.34L11.0667 14.4558L13.9653 17.3527L25.9204 5.39759L26.8043 6.28147L13.9655 19.1202L10.1831 15.34Z" fill="#5C0FD9"/>
</svg>
