<svg width="30" height="30" viewBox="0 0 30 30" fill="none" xmlns="http://www.w3.org/2000/svg">
<path d="M27.5 5.97222C27.5 4.05457 25.8778 2.5 23.8768 2.5L19.8913 2.5C19.8913 4.99295 17.7825 7.01389 15.1812 7.01389C12.5798 7.01389 10.471 4.99295 10.471 2.5L6.12319 2.5C4.12216 2.5 2.5 4.05457 2.5 5.97222L2.5 24.0278C2.5 25.9454 4.12216 27.5 6.12319 27.5L23.8768 27.5C25.8778 27.5 27.5 25.9454 27.5 24.0278L27.5 5.97222Z" fill="#FFEFE5"/>
<path fill-rule="evenodd" clip-rule="evenodd" d="M26.25 5.97222C26.25 4.79453 25.2382 3.75 23.8768 3.75L21.0018 3.75C20.4078 6.36217 17.9905 8.26389 15.1812 8.26389C12.3718 8.26389 9.95453 6.36217 9.36051 3.75L6.12319 3.75C4.76184 3.75 3.75 4.79453 3.75 5.97222L3.75 24.0278C3.75 25.2055 4.76184 26.25 6.12319 26.25L23.8768 26.25C25.2382 26.25 26.25 25.2055 26.25 24.0278L26.25 5.97222ZM6.12319 2.5C4.12216 2.5 2.5 4.05457 2.5 5.97222L2.5 24.0278C2.5 25.9454 4.12216 27.5 6.12319 27.5L23.8768 27.5C25.8778 27.5 27.5 25.9454 27.5 24.0278L27.5 5.97222C27.5 4.05457 25.8778 2.5 23.8768 2.5L19.8913 2.5C19.8913 4.99295 17.7825 7.01389 15.1812 7.01389C12.5798 7.01389 10.471 4.99295 10.471 2.5L6.12319 2.5Z" fill="#FF6300"/>
<g clip-path="url(#clip0_5005_7053)">
<path d="M12.8127 22.0662H14.0627L17.1877 17.0662H20.6252C21.144 17.0662 21.5627 16.6474 21.5627 16.1287C21.5627 15.6099 21.144 15.1912 20.6252 15.1912L17.1877 15.1912L14.0627 10.1912L12.8127 10.1912L14.3752 15.1912H10.9377L10.0002 13.9412L9.06274 13.9412L9.68774 16.1287L9.06274 18.3162L10.0002 18.3162L10.9377 17.0662L14.3752 17.0662L12.8127 22.0662Z" fill="#5C0FD9"/>
</g>
<defs>
<clipPath id="clip0_5005_7053">
<rect width="15" height="15" fill="white" transform="translate(7.5 8.75)"/>
</clipPath>
</defs>
</svg>
