<svg width="324" height="22" viewBox="0 0 324 22" fill="none" xmlns="http://www.w3.org/2000/svg">
<g clip-path="url(#clip0_4953_38655)">
<path d="M16.9358 18.6448C18.4862 17.262 19.4552 15.2505 19.4552 13.0505C19.4552 10.8505 18.4862 8.83912 16.9358 7.45626C15.5792 6.26198 13.7058 5.50769 11.7032 5.50769C7.43957 5.50769 3.95117 8.90198 3.95117 13.0505C3.95117 17.1991 7.43957 20.5934 11.7032 20.5934C15.9668 20.5934 15.5792 19.8391 16.9358 18.6448Z" fill="#0066CB"/>
<path d="M16.9355 18.6448C18.4859 17.262 19.4549 15.2505 19.4549 13.0505C19.4549 10.8505 18.4859 8.83909 16.9355 7.45624" fill="#0066CB"/>
<path d="M16.9355 18.6448C18.4859 17.262 19.4549 15.2505 19.4549 13.0505C19.4549 10.8505 18.4859 8.83909 16.9355 7.45624" stroke="#0066CB" stroke-width="0.3"/>
<path d="M22.1682 5.50769C20.1656 5.50769 18.3568 6.26198 16.9356 7.45626C16.6772 7.70769 16.4188 7.95912 16.1604 8.2734H17.7108C17.9046 8.52483 18.0984 8.77626 18.2922 9.09055H15.579C15.4498 9.34198 15.256 9.5934 15.1268 9.90769H18.7444C18.8736 10.1591 19.0028 10.4105 19.0674 10.7248H14.8038C14.7392 10.9763 14.61 11.2277 14.5454 11.542H19.3258C19.455 12.0448 19.5196 12.6105 19.5196 13.1134C19.5196 13.9305 19.3904 14.7477 19.132 15.502H14.8684C14.933 15.7534 15.0622 16.0677 15.1914 16.3191H18.809C18.6798 16.5705 18.5506 16.8848 18.3568 17.1363H15.579C15.7728 17.3877 15.9666 17.702 16.1604 17.9534H17.7108C17.4524 18.2677 17.194 18.5191 16.9356 18.7705C18.2922 19.9648 20.1656 20.7191 22.1682 20.7191C26.4318 20.7191 29.9202 17.3248 29.9202 13.1763C29.9202 8.90198 26.4318 5.50769 22.1682 5.50769Z" fill="#D31313"/>
<path d="M29.0807 17.262C29.0807 17.2201 29.0807 17.2201 29.0807 17.262C29.0807 17.1991 29.0807 17.1991 29.0807 17.262ZM29.0807 17.3877V17.1363C29.0807 17.1991 29.0807 17.262 29.0807 17.262V17.3877C29.0807 17.3248 29.0807 17.3248 29.0807 17.3248V17.3877ZM29.0807 17.4506C29.2099 17.4506 29.2745 17.3877 29.2745 17.262C29.2745 17.1363 29.2745 17.0734 29.0807 17.0734C28.8869 17.0734 28.8869 17.1363 28.8869 17.262C28.8869 17.3877 29.0161 17.4506 29.0807 17.4506ZM28.8223 17.262C28.8223 17.1363 28.9515 17.0106 29.0807 17.0106C29.2099 17.0106 29.3391 17.1363 29.3391 17.262C29.3391 17.3877 29.2099 17.5134 29.0807 17.5134C28.9515 17.5134 28.8223 17.3877 28.8223 17.262Z" fill="#333333"/>
<path d="M10.5405 15.1248H9.57146L10.1529 12.1705L8.79626 15.1248H7.95646L7.82726 12.2334L7.18126 15.1877H6.27686L7.05206 11.3534H8.60246V13.742L9.63606 11.3534H11.2511L10.5405 15.1248Z" fill="#333333"/>
<path d="M21.2641 15.1248C21.0057 15.1877 20.8119 15.2505 20.5535 15.2505C20.0367 15.2505 19.7783 14.9991 19.7783 14.5591V13.9934C19.8429 13.9934 19.9075 13.742 19.9075 13.742L20.3597 11.3534H21.3933L21.2641 12.0448H21.7809L21.6517 12.7991H21.1349L20.8765 14.1191V14.2448C20.8765 14.4334 20.9411 14.4963 21.1995 14.4963H21.4579L21.2641 15.1248Z" fill="#333333"/>
<path d="M17.4527 13.0506C17.4527 13.4277 17.6465 13.742 18.1633 13.9306C18.5509 14.0563 18.6155 14.1191 18.6155 14.2448C18.6155 14.4334 18.4217 14.4963 18.0341 14.4963C17.6465 14.4963 17.4527 14.4334 17.1297 14.3706L17.0005 15.062H17.2589C17.3235 15.1248 17.3881 15.1248 17.5173 15.1248H18.0341C19.0677 15.1248 19.5199 14.8106 19.5199 14.0563C19.5199 13.302 19.3261 13.3648 18.8093 13.1763C18.4217 12.9877 18.3571 12.9877 18.3571 12.862C18.3571 12.6734 18.5509 12.6106 18.8093 12.6106C19.0677 12.6106 19.2615 12.6106 19.5199 12.6734L19.6491 11.982C19.3907 11.9191 19.0031 11.9191 18.8093 11.9191C17.8403 11.982 17.4527 12.422 17.4527 13.0506Z" fill="#333333"/>
<path d="M12.9951 13.742H12.8013C12.2845 13.742 11.9615 13.9305 11.9615 14.2448C11.9615 14.5591 12.0907 14.5591 12.2845 14.5591C12.6721 14.5591 12.9951 14.2448 12.9951 13.742ZM13.6411 15.1248H12.8013V14.8105C12.5429 15.062 12.2199 15.1877 11.7677 15.1877C11.3155 15.1877 10.8633 14.8105 10.8633 14.3077C10.8633 13.5534 11.5093 13.1134 12.5429 13.1134H12.9305C12.9735 13.0296 12.9951 12.9667 12.9951 12.9248C12.9951 12.7363 12.8013 12.6105 12.3491 12.6105C11.8969 12.6105 11.7677 12.6734 11.5093 12.6734H11.3801C11.3801 12.7363 11.3155 12.7363 11.3155 12.7363L11.4447 12.0448C11.8969 11.9191 12.2199 11.8563 12.6075 11.8563C13.4473 11.8563 13.8995 12.1705 13.8995 12.7991C13.8995 13.4277 13.8995 13.0505 13.8349 13.4277L13.7057 14.622V14.8105C13.6411 14.8105 13.6411 14.9991 13.6411 14.9991V15.1248Z" fill="#333333"/>
<path d="M16.3545 13.2391V13.0506C16.3545 12.7991 16.1607 12.6734 15.9023 12.6734C15.6439 12.6734 15.3855 12.862 15.3209 13.2391H16.3545ZM16.8067 15.062C16.4837 15.1249 16.1607 15.1877 15.8377 15.1877C14.7395 15.1877 14.2227 14.6849 14.2227 13.8049C14.2227 12.9249 14.9333 11.982 15.9023 11.982C16.8713 11.982 17.1943 12.422 17.1943 13.1134C17.1943 13.8049 17.1297 13.5534 17.0651 13.8677H15.1271V13.9934C15.1271 14.3706 15.3855 14.5591 15.9669 14.5591C16.5483 14.5591 16.6129 14.4963 17.0005 14.3706L16.8067 15.062Z" fill="#333333"/>
<path d="M26.109 13.3649C26.109 13.0506 25.9798 12.7363 25.5922 12.7363C25.2046 12.7363 24.817 13.302 24.817 13.8049C24.817 14.3077 25.0108 14.4963 25.3984 14.4963C25.786 14.4963 26.0444 14.2449 26.109 13.742V13.3649ZM27.1426 13.742C27.0134 14.7477 26.2382 15.2506 25.2692 15.2506C24.3002 15.2506 23.7188 14.622 23.7188 13.8049C23.7188 12.9877 24.4294 11.982 25.5922 11.982C26.755 11.982 27.1426 12.6106 27.1426 13.3649V13.742Z" fill="#333333"/>
<path d="M27.4654 14.6848C27.4654 14.6429 27.4654 14.6429 27.4654 14.6848C27.4654 14.7267 27.4654 14.7267 27.4654 14.6848ZM27.4654 14.8106V14.622C27.4654 14.6848 27.4654 14.7477 27.4654 14.7477C27.4654 14.8106 27.4654 14.8106 27.4654 14.8106C27.4654 14.7477 27.4654 14.7477 27.4654 14.7477H27.5946L27.4654 14.8106ZM27.4654 14.8734C27.5946 14.8734 27.6592 14.8106 27.6592 14.6848C27.6592 14.5591 27.6592 14.4963 27.4654 14.4963C27.2716 14.4963 27.2716 14.5591 27.2716 14.6848C27.2716 14.8106 27.2716 14.8734 27.4654 14.8734ZM27.207 14.6848C27.207 14.5591 27.3362 14.4334 27.4654 14.4334C27.5946 14.4334 27.7238 14.5591 27.7238 14.6848C27.7238 14.8106 27.5946 14.9363 27.4654 14.9363C27.3362 14.9363 27.207 14.8106 27.207 14.6848Z" fill="white"/>
<path d="M10.7342 14.9363H9.76516L10.3466 11.982L8.98996 14.9363H8.15016L8.02096 12.0448L7.43956 14.9363H6.53516L7.31036 11.102H8.79616V13.4906C8.86076 13.4906 9.95896 11.102 9.95896 11.102H11.5094L10.7342 14.9363Z" fill="white"/>
<path d="M21.5224 14.8734C21.264 14.9363 21.0702 14.9991 20.8118 14.9991C20.295 14.9991 20.0366 14.7477 20.0366 14.3077V13.742C20.1012 13.742 20.1658 13.4906 20.1658 13.4906L20.618 11.102H21.587L21.4578 11.7934H21.9746L21.8454 12.5477H21.3286L21.0702 13.8677V13.9934C21.0702 14.182 21.1994 14.2448 21.3932 14.2448H21.6516L21.5224 14.8734Z" fill="white"/>
<path d="M24.0419 12.7363V12.6106L24.2357 12.1077H24.0419C23.7189 12.1077 23.5251 12.2334 23.2021 12.6106L23.3313 12.0449H22.2977L21.7163 15.1249H22.6853C22.8145 14.4334 22.8791 13.9934 22.9437 13.6791C23.0729 13.1134 23.5251 12.862 23.7835 12.9249H23.9773V12.7363H24.0419Z" fill="#333333"/>
<path d="M24.3648 11.8563C24.3648 11.8563 24.3217 11.8353 24.2356 11.7934H24.0418C23.7188 11.7934 23.525 11.9191 23.202 12.2963V11.7934C23.2666 11.7934 22.3622 11.7934 22.3622 11.7934L21.7808 14.8734H22.7498C23.0728 12.9877 23.2666 12.6105 23.7188 12.6105H23.9772L24.3648 11.8563Z" fill="white"/>
<path d="M17.7108 12.7991C17.7108 13.1762 17.9692 13.4905 18.486 13.6791C18.8736 13.8048 18.9382 13.8677 18.9382 13.9934C18.9382 14.1819 18.7444 14.2448 18.3568 14.2448C17.9692 14.2448 17.7754 14.1819 17.4524 14.1191L17.3232 14.8105H18.3568C19.3904 14.8105 19.8426 14.4962 19.8426 13.8048C19.8426 13.1134 19.6488 13.1134 19.132 12.9248C18.7444 12.7362 18.6798 12.7362 18.6798 12.6105C18.6798 12.4219 18.8736 12.3591 19.132 12.3591C19.3904 12.3591 19.5842 12.3591 19.8426 12.4219L19.9718 11.7305C19.7134 11.6677 19.3258 11.6677 19.132 11.6677C18.0984 11.7305 17.7108 12.2334 17.7108 12.7991Z" fill="white"/>
<path d="M13.1888 13.5534H12.995C12.4782 13.5534 12.1552 13.742 12.1552 14.0562C12.1552 14.3705 12.2844 14.3705 12.4782 14.3705C12.8658 14.3705 13.1888 13.9934 13.1888 13.5534ZM13.8994 14.9362H13.0596V14.622C12.8012 14.8734 12.4782 14.9991 12.026 14.9991C11.5738 14.9991 11.1216 14.622 11.1216 14.1191C11.1216 13.3648 11.7676 12.9248 12.8012 12.9248H13.1888C13.1888 12.7991 13.2534 12.7991 13.2534 12.7362C13.2534 12.5477 13.0596 12.4848 12.6074 12.4848C12.1552 12.4848 12.026 12.5477 11.8322 12.5477H11.703C11.703 12.6105 11.6384 12.6105 11.6384 12.6105L11.7676 11.9191C12.2844 11.7934 12.5428 11.7305 12.9304 11.7305C13.7702 11.7305 14.2224 12.0448 14.2224 12.6734C14.2224 13.302 14.2224 12.9248 14.1578 13.302L13.964 14.4334V14.622C13.8994 14.622 13.8994 14.8105 13.8994 14.8105V14.9362Z" fill="white"/>
<path d="M16.5483 12.9877V12.7991C16.5483 12.5477 16.3545 12.422 16.0961 12.422C15.8377 12.422 15.5793 12.6105 15.4501 12.9877H16.5483ZM17.0651 14.8734C16.7421 14.9363 16.4191 14.9991 16.0961 14.9991C14.9979 14.9991 14.4165 14.4963 14.4165 13.6163C14.4165 12.7363 15.1271 11.7934 16.0961 11.7934C17.0651 11.7934 17.3881 12.2334 17.3881 12.9248C17.3881 13.6163 17.3235 13.3648 17.2589 13.6791H15.3209V13.8048C15.3209 14.182 15.5793 14.3705 16.1607 14.3705C16.7421 14.3705 16.8067 14.3077 17.1943 14.182L17.0651 14.8734Z" fill="white"/>
<path d="M26.3674 13.1134C26.3674 12.7991 26.2382 12.4848 25.8506 12.4848C25.463 12.4848 25.0754 13.0505 25.0754 13.5534C25.0754 14.0562 25.2692 14.2448 25.6568 14.2448C26.0444 14.2448 26.3028 13.9934 26.3674 13.4905V13.1134ZM27.3364 13.4905C27.2072 14.4962 26.432 14.9991 25.463 14.9991C24.494 14.9991 23.9126 14.3705 23.9126 13.5534C23.9126 12.7362 24.6878 11.7305 25.786 11.7305C26.8842 11.7305 27.3364 12.3591 27.3364 13.1134C27.3364 13.302 27.3364 13.3648 27.3364 13.4905Z" fill="white"/>
<path d="M62.4145 18.3306C62.2207 18.3306 62.0269 18.5191 62.0269 18.7077C62.0269 18.8963 62.2207 19.0849 62.4145 19.0849C62.6083 19.0849 62.8021 18.8963 62.8021 18.7077C62.8021 18.5191 62.6083 18.3306 62.4145 18.3306ZM62.4145 18.3934C62.6083 18.3934 62.7375 18.5191 62.7375 18.7077C62.7375 18.8963 62.6083 19.022 62.4145 19.022C62.2207 19.022 62.0915 18.8963 62.0915 18.7077C62.0269 18.582 62.2207 18.3934 62.4145 18.3934ZM62.4791 18.7706C62.4791 18.7706 62.6083 18.7077 62.6083 18.6449C62.6083 18.582 62.6083 18.582 62.6083 18.582H62.2853V19.022V18.8334H62.4791V19.022H62.6083L62.4791 18.7706ZM62.2853 18.7077V18.582H62.4145C62.4145 18.582 62.5437 18.582 62.5437 18.6449C62.5437 18.7077 62.5437 18.7077 62.4145 18.7077H62.2853Z" fill="white"/>
<path d="M40.5796 5.57056V20.6563H64.8046V5.57056H40.5796Z" fill="#004D8F"/>
<path d="M40.8379 5.88483H64.4815V20.342H40.8379V5.88483Z" fill="white"/>
<path d="M63.5124 10.0334V6.95343H41.7422V10.0334H63.5124Z" fill="#004D8F"/>
<path d="M63.5124 19.3992V16.3192H41.7422V19.3992H63.5124Z" fill="#FFA425"/>
<path d="M56.0834 15.7534H54.9852L57.9568 10.9134H59.2488L59.701 15.7534H58.409V14.622H56.8586L56.0834 15.7534ZM57.0524 13.9934H58.1506L58.0214 12.2963L57.0524 13.9934ZM53.7578 15.7534C54.21 15.6906 54.533 15.5649 54.856 15.3134C55.4374 14.8734 55.6312 14.0563 55.3082 13.5534C55.1144 13.302 54.7914 13.1134 54.4684 12.9249C54.1454 12.7363 53.9516 12.5477 53.8224 12.3591C53.6932 12.1706 53.8224 11.9191 53.8224 11.7934C54.1454 11.4791 54.6622 11.542 55.1144 11.6677C55.3728 11.7306 55.502 11.7934 55.6958 11.9191L56.148 11.2277C55.9542 11.102 55.6958 10.9763 55.3728 10.9134C55.0498 10.8506 54.5976 10.7877 54.21 10.7877C53.8224 10.7877 53.4994 10.9134 53.1764 11.102C52.8534 11.2906 52.6596 11.542 52.4658 11.8563C52.3366 12.1706 52.272 12.4849 52.4658 12.7363C52.6596 13.302 53.1764 13.4906 53.564 13.742C53.7578 13.8677 53.9516 13.9934 54.0162 14.1191C54.0808 14.2449 54.1454 14.4334 54.0162 14.622C53.887 14.7477 53.6932 14.8734 53.4348 14.9363C53.1764 14.9991 52.8534 14.9363 52.595 14.8734C52.3366 14.8106 52.0782 14.6849 51.8198 14.4963L51.4968 15.3134C52.1428 15.8791 52.9826 15.8791 53.7578 15.7534ZM52.272 10.9134H50.9154L49.365 15.7534H50.7216L52.272 10.9134ZM50.4632 10.9134L47.427 15.7534H46.135L46.0058 11.9191C46.0058 11.7306 46.0058 11.542 46.0058 11.4163C46.0058 11.2906 45.812 11.1649 45.6828 11.102C45.5536 11.0391 45.3598 10.9763 45.166 10.9763C45.166 10.9134 47.3624 10.9134 47.3624 10.9134L47.4916 14.182L49.4296 10.9134H50.5278H50.4632Z" fill="#004D8F"/>
<path d="M59.9594 10.7877C59.7656 10.7877 59.5718 10.9763 59.5718 11.1649C59.5718 11.3534 59.7656 11.542 59.9594 11.542C60.1532 11.542 60.347 11.3534 60.347 11.1649C60.347 10.9763 60.1532 10.7877 59.9594 10.7877ZM59.9594 10.8506C60.1532 10.8506 60.2824 10.9763 60.2824 11.1649C60.2824 11.3534 60.1532 11.4791 59.9594 11.4791C59.7656 11.4791 59.6364 11.3534 59.6364 11.1649C59.6364 11.0391 59.7656 10.8506 59.9594 10.8506ZM60.024 11.2277C60.024 11.2277 60.1532 11.1649 60.1532 11.102C60.1532 11.0391 60.1532 11.0391 60.1532 11.0391H59.8302V11.4791V11.2906H60.024V11.4163L59.8948 11.2277H60.024ZM59.8302 11.1649V11.0391H59.9594C59.9594 11.0391 60.0886 11.0391 60.0886 11.102C60.0886 11.1649 59.9594 11.1649 59.9594 11.1649H59.8302Z" fill="#004D8F"/>
<path d="M101.368 13.1134C101.368 17.262 97.8794 20.6563 93.6158 20.6563C89.3522 20.6563 85.8638 17.262 85.8638 13.1134C85.8638 8.96484 89.3522 5.57056 93.6158 5.57056C97.8794 5.57056 101.368 8.96484 101.368 13.1134Z" fill="#FF9900"/>
<path d="M83.1508 5.57056C78.8872 5.57056 75.4634 8.96484 75.4634 13.1134C75.4634 17.262 78.9518 20.6563 83.2154 20.6563C87.479 20.6563 87.0268 19.902 88.448 18.7077C88.7064 18.4563 88.9648 18.2048 89.2232 17.8906H87.6082C87.4144 17.6391 87.2206 17.3877 87.0268 17.1363H89.74C89.9338 16.8848 90.063 16.6334 90.1922 16.3191H86.5746C86.4454 16.0677 86.3162 15.8163 86.2516 15.502H90.5152C90.7736 14.7477 90.9028 13.9306 90.9028 13.1134C90.9028 12.2963 90.8382 12.0448 90.709 11.4791H85.9932C85.9932 11.2277 86.1224 10.9763 86.187 10.662H90.4506C90.386 10.4106 90.2568 10.0963 90.1276 9.84484H86.51C86.6392 9.59341 86.7684 9.27913 86.9622 9.0277H89.6754C89.4816 8.77627 89.2878 8.46198 89.094 8.21056H87.5436C87.802 7.95913 88.0604 7.7077 88.3188 7.45627C87.0914 6.32484 85.218 5.57056 83.1508 5.57056Z" fill="#D31313"/>
<path d="M100.593 17.0734C100.636 17.0734 100.679 17.0944 100.722 17.1363C100.787 17.1363 100.787 17.1991 100.787 17.1991C100.787 17.262 100.851 17.262 100.851 17.3249C100.851 17.3877 100.851 17.3877 100.787 17.4506C100.787 17.5134 100.722 17.5134 100.722 17.5134C100.657 17.5134 100.657 17.5763 100.593 17.5763C100.528 17.5763 100.528 17.5763 100.464 17.5134C100.399 17.5134 100.399 17.4506 100.399 17.4506C100.399 17.3877 100.334 17.3877 100.334 17.3249C100.334 17.262 100.334 17.262 100.399 17.1991C100.399 17.1363 100.464 17.1363 100.464 17.1363C100.464 17.0734 100.464 17.0734 100.593 17.0734ZM100.593 17.0734H100.464C100.399 17.0734 100.399 17.1363 100.399 17.1363V17.3877C100.399 17.4506 100.464 17.4506 100.464 17.4506H100.722C100.787 17.4506 100.787 17.3877 100.787 17.3877V17.1363C100.787 17.0734 100.722 17.0734 100.722 17.0734H100.593ZM100.464 17.4506V17.1991H100.657V17.3249C100.657 17.3877 100.722 17.4506 100.722 17.4506H100.657C100.657 17.3249 100.593 17.3249 100.593 17.3249H100.528V17.4506H100.464Z" fill="#FCB340"/>
<path d="M85.7993 15.2505L85.9285 14.5591H85.7347C85.4763 14.5591 85.4117 14.4334 85.4117 14.3077L85.6701 12.9248H86.1223V12.1705H85.7993V11.7305H85.0241C85.0241 11.7305 84.5073 14.3705 84.5073 14.6848C84.5073 15.1877 84.7657 15.3762 85.1533 15.3762C85.5409 15.3762 85.7347 15.3134 85.7993 15.2505Z" fill="#333333"/>
<path d="M86.0576 13.9934C86.0576 15.1249 86.8328 15.3763 87.4788 15.3763C88.1248 15.3763 88.3832 15.2506 88.3832 15.2506L88.5124 14.4963C88.5124 14.4963 87.9956 14.6849 87.608 14.6849C86.7036 14.6849 86.8974 14.0563 86.8974 14.0563H88.577C88.577 14.0563 88.7062 13.5534 88.7062 13.302C88.7062 12.7992 88.3832 12.1077 87.4788 12.1077C86.639 12.1077 86.0576 12.9877 86.0576 13.9934ZM87.4788 12.862C87.931 12.862 87.8664 13.3649 87.8664 13.4277H86.962C86.962 13.3649 87.0266 12.862 87.4788 12.862Z" fill="#333333"/>
<path d="M92.7113 15.2505L92.8405 14.3705C92.8405 14.3705 92.4529 14.5591 92.1299 14.5591C91.5485 14.5591 91.2901 14.1191 91.2901 13.6791C91.2901 12.7363 91.8069 12.2334 92.3237 12.2334C92.8405 12.2334 93.0989 12.4848 93.0989 12.4848L93.2281 11.6048C93.2281 11.6048 92.8405 11.3534 92.3883 11.3534C91.0963 11.3534 90.3857 12.2334 90.3857 13.742C90.3857 15.2505 90.9025 15.4391 91.9361 15.4391C92.2591 15.3763 92.7113 15.2505 92.7113 15.2505Z" fill="#333333"/>
<path d="M81.2773 12.1077C80.6959 12.1077 80.3083 12.2963 80.3083 12.2963L80.1791 12.9877C80.1791 12.9877 80.5667 12.862 81.0835 12.862C81.6003 12.862 81.6003 12.9249 81.6003 13.1134V13.302H81.2773C80.5021 13.302 79.7915 13.6163 79.7915 14.4963C79.7915 15.3763 80.3083 15.3763 80.5667 15.3763C81.1481 15.3763 81.4065 14.9992 81.4065 14.9992V15.3134H82.1171L82.4401 13.1134C82.4401 12.1706 81.5357 12.1077 81.2773 12.1077ZM81.4065 13.9306C81.4065 14.0563 81.4065 14.6849 80.8897 14.6849C80.3729 14.6849 80.5667 14.4963 80.5667 14.3706C80.5667 14.182 80.6959 13.8677 81.2773 13.8677C81.4065 13.8677 81.3419 13.8677 81.4065 13.8677V13.9306Z" fill="#333333"/>
<path d="M83.151 15.3763C83.3448 15.3763 84.3784 15.4391 84.3784 14.3705C84.3784 13.302 83.4094 13.5534 83.4094 13.1763C83.4094 12.7991 83.5386 12.9248 83.8616 12.9248C84.1846 12.9248 84.443 12.9877 84.443 12.9877L84.5722 12.2963C84.5722 12.2963 84.3138 12.2334 83.797 12.2334C83.2802 12.2334 82.5696 12.4848 82.5696 13.302C82.5696 14.1191 83.6032 14.1191 83.6032 14.4963C83.6032 14.8734 83.3448 14.7477 83.0864 14.7477C82.6988 14.7477 82.3758 14.622 82.3758 14.622L82.2466 15.3134C82.2466 15.2505 82.505 15.3763 83.151 15.3763Z" fill="#333333"/>
<path d="M99.4944 11.4791L99.3652 12.5477C99.3652 12.5477 99.0422 12.1077 98.59 12.1077C97.6856 12.1077 97.2334 12.9877 97.2334 13.9934C97.2334 14.9991 97.5564 15.3134 98.267 15.3134C98.9776 15.3134 99.0422 14.9991 99.0422 14.9991V15.3134C98.9776 15.3134 99.7528 15.3134 99.7528 15.3134L100.399 11.4791H99.4944ZM99.1714 13.6163C99.1714 14.0563 98.9776 14.622 98.5254 14.622C98.0732 14.622 98.0732 14.3706 98.0732 13.9934C98.0732 13.3648 98.3316 12.9877 98.7192 12.9877C98.9776 12.9877 99.1714 13.1134 99.1714 13.6163Z" fill="#333333"/>
<path d="M76.8198 15.3134L77.3366 12.422V15.3134H77.9826L79.0162 12.422L78.564 15.3134H79.4038L80.0498 11.4791H78.6932L77.918 13.8048V11.4791H76.626L75.98 15.3134H76.8198Z" fill="#333333"/>
<path d="M89.4814 15.3134C89.7398 13.9934 89.8044 12.9248 90.515 13.1763C90.6442 12.6734 90.838 12.2334 90.9672 11.982C90.9672 11.982 90.9026 11.9191 90.7088 11.9191C90.3212 11.9191 89.869 12.6734 89.869 12.6734V12.2334C89.9336 12.2334 89.1584 12.2334 89.1584 12.2334L88.6416 15.3763H89.4814V15.3134Z" fill="#333333"/>
<path d="M94.456 12.1077C93.8746 12.1077 93.487 12.2963 93.487 12.2963L93.3578 12.9877C93.3578 12.9877 93.7454 12.862 94.2622 12.862C94.779 12.862 94.779 12.9249 94.779 13.1134V13.302H94.456C93.6808 13.302 92.9702 13.6163 92.9702 14.4963C92.9702 15.3763 93.487 15.3763 93.7454 15.3763C94.3268 15.3763 94.5852 14.9992 94.5852 14.9992V15.3134H95.2958L95.6188 13.1134C95.5542 12.1706 94.7144 12.1077 94.456 12.1077ZM94.5852 13.9306C94.5852 14.0563 94.5206 14.6849 94.0684 14.6849C93.6162 14.6849 93.7454 14.4963 93.7454 14.3706C93.7454 14.182 93.8746 13.8677 94.456 13.8677C94.5852 13.8677 94.456 13.8677 94.5852 13.8677V13.9306Z" fill="#333333"/>
<path d="M96.394 15.3134C96.5232 14.3077 96.7816 12.9877 97.4276 13.1763C97.5568 12.6734 97.4276 12.6734 97.2338 12.6734H96.7816V12.2334C96.8462 12.2334 96.071 12.2334 96.071 12.2334L95.5542 15.3763H96.394V15.3134Z" fill="#333333"/>
<path d="M85.993 15.062L86.1222 14.3706H85.9284C85.67 14.3706 85.6054 14.2448 85.6054 14.1191L85.8638 12.7363H86.316L86.4452 11.982H86.0576V11.542H85.2824C85.2824 11.542 84.7656 14.182 84.7656 14.4963C84.7656 14.9991 85.024 15.1877 85.4116 15.1877C85.67 15.1248 85.9284 15.062 85.993 15.062Z" fill="white"/>
<path d="M86.2515 13.742C86.2515 14.8734 87.0267 15.1248 87.6727 15.1248C88.3187 15.1248 88.5125 14.9991 88.5125 14.9991L88.6417 14.2448C88.6417 14.2448 88.1895 14.4334 87.7373 14.4334C86.8329 14.4334 87.0267 13.8048 87.0267 13.8048H88.7063C88.7063 13.8048 88.8355 13.302 88.8355 13.0505C88.8355 12.5477 88.5771 11.8563 87.6727 11.8563C86.8975 11.8563 86.2515 12.7363 86.2515 13.742ZM87.7373 12.6105C88.1895 12.6105 88.1249 13.1134 88.1249 13.1763H87.2205C87.1559 13.1134 87.2205 12.6105 87.7373 12.6105Z" fill="white"/>
<path d="M92.9055 15.062L93.0347 14.182C93.0347 14.182 92.6471 14.3706 92.3241 14.3706C91.7427 14.3706 91.4843 13.9306 91.4843 13.4906C91.4843 12.5477 92.0011 12.0449 92.5179 12.0449C93.0347 12.0449 93.2931 12.2963 93.2931 12.2963L93.4223 11.4163C93.4223 11.4163 92.9055 11.2277 92.5179 11.2277C91.5489 11.2277 90.6445 12.0449 90.6445 13.5534C90.6445 15.062 91.1613 15.1877 92.1303 15.1877C92.5179 15.1249 92.9055 15.062 92.9055 15.062Z" fill="white"/>
<path d="M81.4712 11.9191C80.8898 11.9191 80.5022 12.1077 80.5022 12.1077L80.373 12.7991C80.373 12.7991 80.7606 12.6734 81.2774 12.6734C81.7942 12.6734 81.7942 12.7363 81.7942 12.9248V13.1134H81.4712C80.7606 13.1134 79.9854 13.4277 79.9854 14.3077C79.9854 15.1877 80.5022 15.1877 80.7606 15.1877C81.342 15.1877 81.6004 14.8106 81.6004 14.8106V15.1248H82.311L82.634 12.9248C82.634 11.9191 81.7942 11.9191 81.4712 11.9191ZM81.665 13.6791C81.665 13.8048 81.665 14.4334 81.0836 14.4334C80.5022 14.4334 80.7606 14.2448 80.7606 14.1191C80.7606 13.9306 80.8898 13.6163 81.4712 13.6163C81.6004 13.6163 81.665 13.6163 81.665 13.6163V13.6791Z" fill="white"/>
<path d="M83.4093 15.1249C83.6031 15.1249 84.6367 15.1877 84.6367 14.1191C84.6367 13.0506 83.6677 13.302 83.6677 12.9249C83.6677 12.5477 83.7969 12.6734 84.1199 12.6734C84.4429 12.6734 84.7013 12.7363 84.7013 12.7363L84.8305 12.0449C84.8305 12.0449 84.5721 11.982 84.0553 11.982C83.5385 11.982 82.8279 12.2334 82.8279 13.0506C82.8279 13.8677 83.8615 13.8677 83.8615 14.2449C83.8615 14.622 83.6031 14.4963 83.3447 14.4963C82.9571 14.4963 82.6341 14.3706 82.6341 14.3706L82.5049 15.062C82.5049 14.9991 82.6987 15.1249 83.4093 15.1249Z" fill="white"/>
<path d="M99.7529 11.2277L99.559 12.2963C99.559 12.2963 99.2361 11.8563 98.7839 11.8563C98.0087 11.8563 97.4272 12.7363 97.4272 13.742C97.4272 14.7477 97.7503 15.062 98.4609 15.062C99.1715 15.062 99.236 14.7477 99.236 14.7477V15.062C99.1714 15.062 99.9467 15.062 99.9467 15.062L100.593 11.2277H99.7529ZM99.3652 13.3649C99.3652 13.8049 99.1714 14.3706 98.7192 14.3706C98.267 14.3706 98.267 14.1192 98.267 13.742C98.267 13.1134 98.5254 12.7363 98.913 12.7363C99.236 12.6734 99.3652 12.862 99.3652 13.3649Z" fill="white"/>
<path d="M77.0136 15.062L77.5304 12.1706V15.062H78.1764L79.21 12.1706L78.7578 15.062H79.5976L80.2436 11.2277H78.9516L78.1118 13.5534V11.2277H76.8198L76.1738 15.062H77.0136Z" fill="white"/>
<path d="M89.7402 15.062C89.9986 13.742 89.9986 12.6734 90.58 12.862C90.7092 12.3591 90.7738 12.1706 90.903 11.9191H90.7738C90.3862 11.9191 90.1278 12.422 90.1278 12.422V11.982C90.1924 11.982 89.4172 11.982 89.4172 11.982L88.9004 15.1248H89.7402V15.062Z" fill="white"/>
<path d="M94.8432 11.9191C94.2618 11.9191 93.8742 12.1077 93.8742 12.1077L93.745 12.7991C93.745 12.7991 94.1326 12.6734 94.6494 12.6734C95.1662 12.6734 95.1662 12.7363 95.1662 12.9248V13.1134H94.8432C94.1326 13.1134 93.3574 13.4277 93.3574 14.3077C93.3574 15.1877 93.8742 15.1877 94.1326 15.1877C94.714 15.1877 94.9724 14.8106 94.9724 14.8106V15.1248H95.683L96.006 12.9248C95.9414 11.9191 95.1016 11.9191 94.8432 11.9191ZM95.037 13.6791C95.037 13.8048 94.9724 14.4334 94.4556 14.4334C93.9388 14.4334 94.1326 14.2448 94.1326 14.1191C94.1326 13.9306 94.2618 13.6163 94.8432 13.6163C94.9294 13.6163 94.994 13.6163 95.037 13.6163V13.6791Z" fill="white"/>
<path d="M96.6523 15.062C96.9107 13.742 96.9107 12.6734 97.4921 12.862C97.6213 12.3591 97.6859 12.1706 97.8151 11.9191H97.6859C97.2983 11.9191 97.0399 12.422 97.0399 12.422V11.982C97.1045 11.982 96.3293 11.982 96.3293 11.982L95.8125 15.1248H96.6523V15.062Z" fill="white"/>
<path d="M100.528 14.622C100.571 14.622 100.615 14.643 100.658 14.6849C100.722 14.6849 100.722 14.7477 100.722 14.7477C100.722 14.8106 100.787 14.8106 100.787 14.8734C100.787 14.9363 100.787 14.9363 100.722 14.9992C100.722 15.062 100.658 15.062 100.658 15.062C100.593 15.062 100.593 15.1249 100.528 15.1249C100.464 15.1249 100.464 15.1249 100.399 15.062C100.335 15.062 100.335 14.9992 100.335 14.9992C100.335 14.9363 100.27 14.9363 100.27 14.8734C100.27 14.8106 100.27 14.8106 100.335 14.7477C100.335 14.6849 100.399 14.6849 100.399 14.6849C100.399 14.622 100.528 14.622 100.528 14.622ZM100.528 14.622H100.399C100.335 14.622 100.335 14.6849 100.335 14.6849V14.9363C100.335 14.9992 100.399 14.9992 100.399 14.9992H100.658C100.722 14.9992 100.722 14.9363 100.722 14.9363V14.6849C100.722 14.622 100.658 14.622 100.658 14.622H100.528ZM100.464 14.9992V14.7477H100.658V14.8734C100.658 14.9363 100.722 14.9992 100.722 14.9992H100.658C100.658 14.8734 100.593 14.8734 100.593 14.8734H100.528V14.9992H100.464Z" fill="white"/>
<path d="M112.479 18.5191H112.802L112.479 19.7762C112.414 19.9648 112.414 20.0905 112.479 20.2162C112.544 20.2791 112.673 20.342 112.802 20.342C112.996 20.342 113.125 20.2791 113.19 20.2162C113.319 20.1534 113.383 19.9648 113.448 19.7762L113.771 18.5191H114.094L113.771 19.7762C113.706 20.0277 113.577 20.2791 113.383 20.4048C113.19 20.5305 112.996 20.5934 112.673 20.5934C112.35 20.5934 112.221 20.5305 112.091 20.4048C111.962 20.2791 111.962 20.0905 112.027 19.7762L112.479 18.5191Z" fill="#666666"/>
<path d="M114.094 20.5934L114.611 18.4563L115.58 19.7134C115.58 19.7763 115.645 19.7763 115.645 19.8392C115.645 19.902 115.709 19.902 115.709 19.9649L116.032 18.5192H116.355L115.838 20.6563L114.805 19.3992C114.805 19.3363 114.74 19.3363 114.74 19.2734C114.74 19.2106 114.676 19.2106 114.676 19.1477L114.353 20.5934H114.094Z" fill="#666666"/>
<path d="M116.419 20.5934L116.936 18.5191H117.259L116.742 20.5934H116.419Z" fill="#666666"/>
<path d="M117.259 20.5934L117.776 18.5191H118.939V18.7705H118.034L117.905 19.2734H118.745V19.5877H117.841L117.582 20.5305H117.259V20.5934Z" fill="#666666"/>
<path d="M118.745 20.5934L119.262 18.5191H119.585L119.068 20.5934H118.745Z" fill="#666666"/>
<path d="M119.521 20.5934L120.037 18.5191H121.2V18.7705H120.296L120.167 19.2734H121.006V19.5877H120.102L119.908 20.2791H120.748V20.5934H119.521Z" fill="#666666"/>
<path d="M121.458 20.2791H122.04C122.104 20.2791 122.169 20.2162 122.234 20.1534C122.298 20.0905 122.427 20.0277 122.492 19.902C122.557 19.7762 122.621 19.7134 122.621 19.5877C122.621 19.462 122.686 19.3362 122.621 19.2734C122.621 19.1477 122.557 19.0848 122.492 19.022C122.427 18.9591 122.363 18.9591 122.298 18.8962H121.652L121.458 20.2791ZM121.071 20.5934L121.588 18.5191H122.04C122.363 18.5191 122.557 18.5191 122.621 18.582C122.75 18.582 122.815 18.6448 122.88 18.7077C122.944 18.7705 123.009 18.8962 123.073 19.0848V19.5877C123.009 19.7762 122.944 19.902 122.88 20.0905C122.815 20.2162 122.686 20.342 122.557 20.4677C122.427 20.5305 122.363 20.5934 122.234 20.5934C122.104 20.5934 121.911 20.6562 121.717 20.6562H121.071V20.5934Z" fill="#666666"/>
<path d="M124.688 19.3991H124.753C124.947 19.3991 125.076 19.3991 125.141 19.3362C125.205 19.2734 125.27 19.2105 125.27 19.1477C125.27 19.022 125.27 18.9591 125.205 18.8962C125.141 18.8334 125.011 18.8334 124.882 18.8334H124.818L124.688 19.3991ZM124.559 19.6505L124.365 20.5934H124.042L124.559 18.5191H125.399C125.464 18.5191 125.528 18.582 125.593 18.582C125.657 18.6448 125.657 18.7077 125.722 18.7705V19.022C125.722 19.1477 125.657 19.2105 125.593 19.2734C125.528 19.3362 125.464 19.3991 125.399 19.462C125.334 19.5248 125.27 19.5248 125.205 19.5248H124.559V19.6505Z" fill="#666666"/>
<path d="M126.045 19.7763H126.627V19.3363C126.562 19.3363 126.562 19.2734 126.562 19.2106V19.0849C126.562 19.1477 126.497 19.1477 126.497 19.2106C126.497 19.2734 126.433 19.2734 126.433 19.3363L126.045 19.7763ZM126.756 20.5934L126.627 20.0906H125.787L125.399 20.5934H125.076L126.562 18.4563L127.014 20.5934H126.756Z" fill="#666666"/>
<path d="M127.596 20.5934L127.854 19.6505L127.466 18.5191H127.789L128.048 19.2105V19.3362C128.048 19.2734 128.112 19.2734 128.112 19.2734H128.177C128.177 19.2105 128.758 18.5191 128.758 18.5191H129.081L128.112 19.6505L127.854 20.5934H127.596Z" fill="#666666"/>
<path d="M130.761 19.5877V19.3363C130.761 19.3991 130.696 19.3991 130.696 19.462C130.696 19.5249 130.631 19.5249 130.631 19.5877L129.856 20.6563L129.598 19.5249V19.2734C129.598 19.3153 129.576 19.3572 129.533 19.3991C129.533 19.462 129.469 19.5249 129.469 19.5249L129.016 20.5306H128.693L129.727 18.3934L129.985 19.7134V20.0277C130.05 19.9649 130.05 19.902 130.115 19.7763C130.115 19.7763 130.115 19.7134 130.179 19.7134L131.084 18.4563V20.5934H130.761V19.5877Z" fill="#666666"/>
<path d="M131.342 20.5934L131.859 18.5191H133.022V18.7705H132.117L131.988 19.2734H132.828V19.5877H131.924L131.73 20.2791H132.57V20.5934H131.342Z" fill="#666666"/>
<path d="M132.828 20.5934L133.345 18.4563L134.314 19.7134C134.314 19.7763 134.379 19.7763 134.379 19.8392C134.379 19.902 134.443 19.902 134.443 19.9649L134.766 18.5192H135.089L134.572 20.6563L133.539 19.3992C133.539 19.3363 133.474 19.3363 133.474 19.2734C133.474 19.2106 133.41 19.2106 133.41 19.1477L133.087 20.5934H132.828Z" fill="#666666"/>
<path d="M136.252 18.8334L135.799 20.5934H135.476L135.929 18.8334H135.347V18.582H136.833V18.8334H136.252Z" fill="#666666"/>
<path d="M136.575 20.1534L136.898 20.0277C136.898 20.0905 136.898 20.2162 136.962 20.2162C137.027 20.2791 137.092 20.2791 137.221 20.2791C137.35 20.2791 137.415 20.2791 137.479 20.2162C137.544 20.1534 137.608 20.0905 137.608 19.9648C137.608 19.8391 137.544 19.7134 137.415 19.6505H137.35C137.156 19.5248 137.027 19.462 136.962 19.3362C136.898 19.2734 136.898 19.1477 136.898 19.022C136.962 18.8334 137.027 18.7077 137.156 18.6448C137.285 18.5191 137.479 18.5191 137.608 18.5191C137.738 18.5191 137.867 18.5191 137.996 18.582C138.061 18.6448 138.125 18.7077 138.125 18.8334L137.802 18.9591C137.802 18.8962 137.738 18.8334 137.673 18.8334C137.608 18.8334 137.608 18.7705 137.544 18.7705C137.479 18.7705 137.35 18.7705 137.285 18.8334C137.221 18.8962 137.156 18.9591 137.156 19.022C137.156 19.1477 137.221 19.2734 137.415 19.3362H137.479C137.673 19.3991 137.802 19.5248 137.802 19.5877C137.867 19.6505 137.867 19.7762 137.802 19.902C137.738 20.0905 137.673 20.2791 137.479 20.342C137.35 20.4677 137.156 20.5305 136.962 20.5305C136.769 20.5305 136.639 20.4677 136.575 20.4048C136.639 20.4048 136.575 20.4048 136.575 20.1534Z" fill="#666666"/>
<path d="M139.03 20.5934L139.547 18.5191H139.87L139.353 20.5934H139.03Z" fill="#666666"/>
<path d="M139.87 20.5934L140.386 18.4563L141.355 19.7134C141.355 19.7763 141.42 19.7763 141.42 19.8392C141.42 19.902 141.485 19.902 141.485 19.9649L141.808 18.5192H142.131L141.614 20.6563L140.58 19.3992C140.58 19.3363 140.516 19.3363 140.516 19.2734C140.516 19.2106 140.451 19.2106 140.451 19.1477L140.128 20.5934H139.87Z" fill="#666666"/>
<path d="M143.228 18.8334L142.776 20.5934H142.453L142.905 18.8334H142.389V18.582H143.874V18.8334H143.228Z" fill="#666666"/>
<path d="M143.616 20.5934L144.133 18.5191H145.296V18.7705H144.391L144.262 19.2734H145.102V19.5877H144.198L144.004 20.2791H144.844V20.5934H143.616Z" fill="#666666"/>
<path d="M145.748 19.3991C146.006 19.3991 146.135 19.3991 146.2 19.3362C146.265 19.2734 146.329 19.2105 146.329 19.1477C146.329 19.022 146.329 18.9591 146.265 18.8962C146.2 18.8334 146.136 18.8334 145.942 18.8334H145.877L145.748 19.3991ZM145.683 19.6505L145.49 20.5934H145.167L145.683 18.5191H146.459C146.523 18.5191 146.588 18.582 146.652 18.582C146.717 18.6448 146.717 18.7077 146.782 18.7705V19.022C146.717 19.2105 146.652 19.3362 146.588 19.3991C146.459 19.462 146.329 19.5248 146.2 19.5877L146.652 20.5305H146.265L145.683 19.6505Z" fill="#666666"/>
<path d="M146.717 20.5934L147.234 18.5191H148.396V18.7705H147.492L147.363 19.2734H148.203V19.5877H147.298L147.04 20.5305H146.717V20.5934Z" fill="#666666"/>
<path d="M148.72 19.7763H149.301V19.3363C149.237 19.3363 149.237 19.2734 149.237 19.2106V19.0849C149.237 19.1477 149.172 19.1477 149.172 19.2106C149.172 19.2734 149.107 19.2734 149.107 19.3363L148.72 19.7763ZM149.495 20.5934L149.366 20.0906H148.526L148.138 20.5934H147.815L149.301 18.4563L149.753 20.5934H149.495Z" fill="#666666"/>
<path d="M152.014 19.022C151.95 18.9591 151.885 18.8963 151.756 18.8334C151.691 18.7706 151.562 18.7706 151.433 18.7706C151.239 18.7706 150.981 18.8334 150.851 18.9591C150.658 19.0849 150.593 19.2734 150.528 19.5249C150.464 19.7763 150.528 19.902 150.593 20.0906C150.722 20.2163 150.851 20.2791 151.045 20.2791C151.239 20.2791 151.304 20.2791 151.433 20.2163C151.562 20.1534 151.691 20.0906 151.82 20.0277V20.4049C151.627 20.4677 151.562 20.5306 151.433 20.5306C151.304 20.5934 151.174 20.5934 151.11 20.5934C150.981 20.5934 150.787 20.5934 150.722 20.5306C150.593 20.4677 150.528 20.4049 150.399 20.2791C150.335 20.1534 150.27 20.0906 150.27 19.9649V19.5249C150.335 19.3991 150.399 19.2106 150.464 19.0849C150.528 18.9591 150.658 18.8334 150.787 18.7077C150.916 18.582 151.045 18.5191 151.174 18.4563C151.304 18.3934 151.497 18.3934 151.627 18.3934C151.756 18.3934 151.885 18.3934 151.95 18.4563C152.079 18.5191 152.143 18.5191 152.208 18.6449L152.014 19.022Z" fill="#666666"/>
<path d="M152.014 20.5934L152.531 18.5191H153.694V18.7705H152.789L152.66 19.2734H153.5V19.5877H152.596L152.402 20.2791H153.242V20.5934H152.014Z" fill="#666666"/>
<path d="M145.942 16.7591H143.681L146.846 5.57056H149.107L145.942 16.7591Z" fill="#666666"/>
<path d="M144.779 5.94771C144.65 5.75914 144.392 5.63342 144.069 5.63342H131.472L130.826 7.77057H142.26L141.614 10.0963H130.18L128.306 16.7591H130.567L131.859 12.2963H142.131C142.454 12.2963 142.777 12.1706 143.035 11.982C143.293 11.7934 143.487 11.4791 143.616 11.1649L144.908 6.70199C144.973 6.38771 144.908 6.13628 144.779 5.94771Z" fill="#666666"/>
<path d="M126.949 16.0677C126.82 16.5077 126.433 16.822 125.916 16.822H114.159C113.836 16.822 113.577 16.6963 113.448 16.5077C113.319 16.3191 113.254 16.0049 113.319 15.6906L116.226 5.63342H118.487L115.903 14.622H125.076L127.66 5.63342H129.921L126.949 16.0677Z" fill="#666666"/>
<path d="M153.048 5.57056L155.955 11.1648L149.882 16.7591L153.048 5.57056Z" fill="#037E0B"/>
<path d="M151.045 5.57056L153.952 11.1648L147.88 16.7591L151.045 5.57056Z" fill="#FF6300"/>
<path d="M222.299 6.70197L225.658 13.1134L218.681 19.5248L222.299 6.70197Z" fill="#037E0B"/>
<path d="M220.038 6.70197L223.333 13.1134L216.356 19.5248L220.038 6.70197Z" fill="#FF6300"/>
<path d="M166.614 17.1991L169.908 5.57056H175.206C176.885 5.57056 177.983 5.82199 178.565 6.32484C179.146 6.8277 179.211 7.7077 178.888 8.90199C178.694 9.59341 178.371 10.222 177.919 10.662C177.467 11.102 176.95 11.4791 176.239 11.7934C176.821 11.9191 177.208 12.1706 177.337 12.6106C177.531 12.9877 177.467 13.6163 177.273 14.3706L176.885 16.0048C176.756 16.5077 176.821 16.7591 177.014 16.7591L176.885 17.1991H173.268C173.268 16.9477 173.332 16.6963 173.332 16.4448C173.332 16.1934 173.397 16.0677 173.397 15.942L173.72 14.8106C173.914 14.182 173.914 13.8048 173.72 13.5534C173.591 13.302 173.203 13.1763 172.622 13.1763H171.136L169.973 17.1991H166.614ZM172.04 10.5991H173.655C174.237 10.5991 174.624 10.5363 174.883 10.3477C175.141 10.1591 175.335 9.9077 175.464 9.53056C175.593 9.15341 175.529 8.83913 175.399 8.65056C175.206 8.46199 174.818 8.39913 174.172 8.39913H172.622L172.04 10.5991Z" fill="#333333"/>
<path d="M188.772 8.65057L186.317 17.1991H183.345L183.733 15.942C183.216 16.4449 182.699 16.822 182.118 17.0734C181.601 17.3249 181.02 17.4506 180.438 17.4506C179.857 17.4506 179.534 17.3877 179.211 17.1991C178.888 17.0106 178.629 16.7591 178.436 16.4449C178.306 16.1306 178.242 15.7534 178.242 15.3134C178.242 14.8734 178.436 14.1191 178.694 13.1134L179.986 8.65057H183.216L181.924 13.1134C181.73 13.742 181.665 14.2449 181.795 14.4963C181.859 14.7477 182.118 14.8734 182.57 14.8734C183.022 14.8734 183.345 14.7477 183.604 14.4334C183.862 14.1191 184.12 13.6791 184.314 13.1134L185.542 8.71343H188.772V8.65057Z" fill="#333333"/>
<path d="M187.609 17.1991L190.903 5.57056H195.49C196.524 5.57056 197.299 5.57056 197.816 5.75913C198.397 5.88484 198.785 6.07341 199.108 6.3877C199.495 6.76484 199.754 7.20484 199.883 7.77056C199.947 8.33627 199.947 8.96484 199.689 9.65627C199.301 10.9763 198.655 11.982 197.751 12.6734C196.847 13.3648 195.684 13.6791 194.263 13.6791H192.131L191.097 17.262H187.609V17.1991ZM192.971 10.7877H194.133C194.844 10.7877 195.425 10.7248 195.684 10.5363C196.007 10.3477 196.201 10.0334 196.33 9.59341C196.459 9.15341 196.394 8.83913 196.201 8.65056C196.007 8.46199 195.555 8.39913 194.779 8.39913H193.617L192.971 10.7877Z" fill="#333333"/>
<path d="M203.565 17.1992V16.382C203.113 16.7592 202.596 17.0734 202.015 17.262C201.498 17.4506 200.917 17.5134 200.335 17.5134C199.431 17.5134 198.785 17.262 198.397 16.822C198.01 16.3192 197.945 15.6906 198.203 14.8106C198.462 13.9306 198.849 13.302 199.495 12.9249C200.077 12.5477 201.11 12.2334 202.532 12.0449C202.725 12.0449 202.984 11.982 203.242 11.982C204.276 11.8563 204.922 11.6049 205.051 11.1649C205.116 10.9134 205.051 10.7249 204.922 10.5992C204.793 10.4734 204.47 10.4106 204.082 10.4106C203.694 10.4106 203.501 10.4734 203.242 10.5992C203.048 10.7249 202.855 10.9763 202.725 11.2277H199.56C199.818 10.2849 200.4 9.53058 201.304 9.02772C202.209 8.52487 203.307 8.27344 204.793 8.27344C206.278 8.27344 206.085 8.33629 206.601 8.46201C207.118 8.58772 207.506 8.77629 207.764 8.96487C208.087 9.21629 208.281 9.53058 208.281 9.90772C208.346 10.222 208.281 10.7249 208.087 11.4163L206.731 16.1934C206.666 16.3192 206.666 16.5077 206.731 16.6334C206.731 16.7592 206.795 16.8849 206.924 16.9477V17.1992H203.565ZM204.34 13.3649C204.017 13.4906 203.565 13.6163 202.984 13.742C202.079 13.9934 201.627 14.2449 201.498 14.622C201.433 14.8734 201.433 15.062 201.563 15.1877C201.692 15.3134 201.886 15.3763 202.209 15.3763C202.725 15.3763 203.178 15.2506 203.501 14.9992C203.824 14.7477 204.082 14.3077 204.211 13.742C204.211 13.6163 204.276 13.5534 204.276 13.4906V13.3649H204.34Z" fill="#333333"/>
<path d="M206.859 20.5934L207.57 18.0791H208.474C208.797 18.0791 209.056 18.0163 209.185 17.8906C209.379 17.7649 209.508 17.5763 209.573 17.3249C209.637 17.1991 209.637 17.0734 209.637 16.9477V16.5077L209.12 8.65057H212.415V13.8677C212.35 13.8677 215.257 8.65057 215.257 8.65057H218.294L213.19 17.1991C212.609 18.142 212.221 18.8334 211.898 19.1477C211.64 19.5249 211.381 19.7763 211.123 19.9649C210.8 20.2163 210.477 20.4049 210.089 20.5306C209.702 20.6563 209.12 20.7191 208.345 20.7191H207.57C207.441 20.7191 207.118 20.5934 206.859 20.5934Z" fill="#333333"/>
<path d="M236.641 13.2391C236.641 9.21626 240 5.94769 244.134 5.94769C248.269 5.94769 251.628 9.21626 251.628 13.2391C251.628 17.262 248.269 20.5305 244.134 20.5305C240 20.5305 236.641 17.262 236.641 13.2391Z" fill="white"/>
<path d="M256.731 8.83911C256.731 8.14768 256.343 8.14768 255.956 8.14768V7.95911H258.346C260.478 7.95911 261.576 9.34196 261.576 10.7248C261.576 12.1077 261.124 13.4905 258.217 13.4905H255.956V13.302C256.472 13.2391 256.666 13.2391 256.731 12.6734V8.83911ZM257.506 12.5477C257.506 13.1762 257.958 13.2391 258.346 13.2391C260.09 13.2391 260.671 11.9191 260.671 10.7877C260.671 9.65625 259.702 8.21053 258.152 8.21053H257.506V12.5477Z" fill="#333333"/>
<path d="M261.899 13.2392H262.028C262.287 13.2392 262.416 13.2392 262.416 12.9877V10.8506C262.416 10.4734 262.287 10.4734 261.964 10.2849V10.1592C262.351 10.0334 262.803 9.90773 262.868 9.84487C262.933 9.84487 262.997 9.78202 262.997 9.78202C263.062 9.78202 263.062 9.84487 263.062 9.90773V12.9249C263.062 13.1763 263.256 13.1763 263.449 13.1763H263.579V13.3649H261.834V13.2392H261.899ZM262.803 8.65059C262.61 8.65059 262.416 8.46202 262.416 8.27344C262.416 8.08487 262.61 7.8963 262.803 7.8963C262.997 7.8963 263.191 8.08487 263.191 8.27344C263.191 8.46202 262.997 8.65059 262.803 8.65059Z" fill="#333333"/>
<path d="M264.418 10.9134C264.418 10.5991 264.354 10.5363 263.966 10.4106V10.2849C264.289 10.1591 264.677 10.0963 265.064 9.90771C265.064 9.90771 265.129 9.90772 265.129 9.97057V10.4734C265.581 10.1591 265.969 9.90771 266.55 9.90771C267.132 9.90771 267.519 10.4106 267.519 11.0391V13.1134C267.519 13.3649 267.713 13.3649 267.907 13.3649H268.036V13.5534H266.292V13.3649H266.421C266.679 13.3649 266.809 13.3649 266.809 13.1134V11.0391C266.809 10.5991 266.55 10.3477 266.033 10.3477C265.517 10.3477 265.387 10.5363 265.064 10.7249V13.0506C265.064 13.302 265.258 13.302 265.452 13.302H265.581V13.4906H263.837V13.302H263.966C264.225 13.302 264.354 13.302 264.354 13.0506V10.9134H264.418Z" fill="#333333"/>
<path d="M268.618 11.2906V11.7306C268.682 12.4848 269.134 13.1134 269.845 13.1134C270.556 13.1134 270.62 12.862 270.943 12.6106L271.072 12.7363C270.685 13.2391 270.233 13.6163 269.587 13.6163C268.295 13.6163 268.036 12.422 268.036 11.8563C268.036 10.2848 269.134 9.84485 269.651 9.84485C270.168 9.84485 271.008 10.222 271.008 11.102V11.2277H270.943C270.943 11.2906 268.618 11.2906 268.618 11.2277V11.2906ZM270.039 11.0391C270.233 11.0391 270.297 10.9134 270.297 10.8506C270.297 10.4734 270.039 10.0963 269.587 10.0963C269.134 10.0963 268.747 10.4734 268.618 11.0391H270.039Z" fill="#333333"/>
<path d="M271.137 13.2391H271.331C271.589 13.2391 271.718 13.2391 271.718 12.9877V10.7877C271.718 10.5363 271.395 10.4734 271.266 10.4106V10.2848C271.848 10.0334 272.171 9.84485 272.235 9.84485C272.3 9.84485 272.3 9.84485 272.3 9.97056V10.662C272.494 10.3477 272.817 9.84485 273.333 9.84485C273.85 9.84485 273.786 9.97056 273.786 10.2848C273.786 10.5991 273.656 10.662 273.398 10.662C273.14 10.662 273.14 10.4734 272.881 10.4734C272.623 10.4734 272.3 10.662 272.3 11.102V12.9877C272.3 13.2391 272.494 13.2391 272.687 13.2391H273.14V13.4277H271.008V13.2391H271.137Z" fill="#333333"/>
<path d="M274.302 12.3592C274.431 12.862 274.754 13.302 275.336 13.302C275.917 13.302 275.982 12.9877 275.982 12.7363C275.982 11.7934 274.237 12.1077 274.237 10.8506C274.237 9.59344 274.625 9.84487 275.529 9.84487C276.434 9.84487 276.111 9.90772 276.434 10.0963V10.9134H276.24C276.175 10.4106 275.852 10.0963 275.336 10.0963C274.819 10.0963 274.69 10.2849 274.69 10.5992C274.69 11.542 276.563 11.2277 276.563 12.4849C276.563 13.742 276.111 13.5534 275.142 13.5534C274.173 13.5534 274.431 13.4277 274.173 13.302V12.3592C274.108 12.3592 274.302 12.3592 274.302 12.3592Z" fill="#333333"/>
<path d="M283.992 9.34201H283.798C283.669 8.39915 282.958 8.02201 282.054 8.02201C281.15 8.02201 279.728 8.65058 279.728 10.5363C279.728 12.422 280.891 13.302 282.183 13.302C283.475 13.302 283.669 12.7363 283.798 11.9191H283.992C283.992 11.982 283.798 13.1134 283.798 13.1134C283.475 13.302 282.506 13.5534 281.989 13.5534C280.051 13.5534 278.889 12.3591 278.889 10.5991C278.889 8.83915 280.374 7.83344 281.989 7.83344C283.604 7.83344 283.281 8.02201 283.927 8.27343V9.34201H283.992Z" fill="#333333"/>
<path d="M284.315 13.2392H284.444C284.703 13.2392 284.832 13.2392 284.832 12.9877V8.58773C284.832 8.08487 284.703 8.08487 284.38 7.95916V7.83344C284.703 7.70773 285.026 7.58201 285.219 7.51916C285.284 7.4563 285.349 7.4563 285.413 7.4563C285.478 7.4563 285.478 7.51916 285.478 7.58201V13.0506C285.478 13.302 285.672 13.302 285.865 13.302H285.995V13.4906H284.25V13.2392H284.315Z" fill="#333333"/>
<path d="M289.548 13.0505C289.548 13.1763 289.613 13.1763 289.806 13.1763H290.129V13.3648C289.806 13.3648 289.096 13.5534 288.967 13.6163H288.902V12.9877C288.385 13.3648 288.062 13.6791 287.481 13.6791C286.899 13.6791 286.576 13.4277 286.576 12.7363V10.7248C286.576 10.5363 286.512 10.3477 286.06 10.2848V10.1591C286.383 10.1591 287.029 10.0963 287.093 10.0963C287.158 10.0963 287.158 10.1591 287.158 10.3477V12.422C287.158 12.6734 287.158 13.3648 287.868 13.3648C288.579 13.3648 288.514 13.1763 288.837 12.862V10.7248C288.837 10.5363 288.45 10.4734 288.127 10.4105V10.2848C288.837 10.222 289.29 10.1591 289.419 10.1591C289.548 10.1591 289.483 10.222 289.483 10.2848V13.0505H289.548Z" fill="#333333"/>
<path d="M291.163 10.4106C291.486 10.1592 291.938 9.84487 292.39 9.84487C293.359 9.84487 293.876 10.662 293.876 11.4792C293.876 12.2963 293.101 13.5534 291.938 13.5534C290.775 13.5534 291.034 13.3649 290.775 13.302L290.517 13.4906H290.323C290.388 12.9877 290.452 12.4849 290.452 12.0449V8.65058C290.452 8.14773 290.323 8.14773 290 8.02201V7.83344C290.323 7.70773 290.646 7.58201 290.84 7.51916C290.904 7.4563 290.969 7.4563 291.034 7.4563C291.098 7.4563 291.098 7.51916 291.098 7.58201V10.4106H291.163ZM291.163 12.5477C291.163 12.862 291.486 13.3649 292.003 13.3649C292.907 13.3649 293.23 12.5477 293.23 11.8563C293.23 11.1649 292.584 10.2849 291.938 10.2849C291.292 10.2849 291.357 10.4734 291.163 10.662V12.5477Z" fill="#333333"/>
<path d="M255.956 18.0791C256.149 18.0791 256.343 18.0791 256.343 17.8277V15.5648C256.343 15.3134 256.149 15.3134 256.02 15.3134H255.956V15.1877H257.312V15.3134H257.248C257.118 15.3134 256.925 15.3134 256.925 15.5648V17.8277C256.925 18.0791 257.118 18.0791 257.248 18.0791H257.312V18.2048H255.956V18.0791Z" fill="#333333"/>
<path d="M257.312 18.2048H255.956V18.0791H256.02C256.149 18.0791 256.343 18.0791 256.343 17.8277V15.5648C256.343 15.3763 256.214 15.3134 256.02 15.3134H255.956V15.1877H257.312V15.3134H257.248C257.118 15.3134 256.925 15.3134 256.925 15.5648V17.8277C256.925 18.0163 257.054 18.0791 257.248 18.0791H257.312V18.2048ZM257.312 18.2048C257.312 18.142 257.248 18.142 257.248 18.142C257.118 18.142 256.925 18.142 256.925 17.8905V15.6277C256.925 15.3763 257.118 15.3763 257.248 15.3763H257.312C257.118 15.3134 256.86 15.3134 256.666 15.3134H256.02H256.085C256.214 15.3134 256.408 15.3134 256.408 15.5648V17.8277C256.408 18.0791 256.214 18.0791 256.085 18.0791H256.02C256.214 18.142 256.472 18.142 256.666 18.142C256.86 18.2048 257.118 18.2048 257.312 18.2048Z" fill="#333333"/>
<path d="M260.413 17.3877V15.7534C260.413 15.3763 260.155 15.3763 260.025 15.3763H259.896V15.2505H261.059C261.059 15.3134 260.994 15.3134 260.994 15.3134C260.801 15.3134 260.607 15.3763 260.607 15.8791V18.2677H260.413L258.152 15.8163V17.5763C258.152 17.9534 258.217 18.0791 258.54 18.0791H258.604V18.2048H257.441V18.0791H257.506C257.829 18.0791 257.894 17.8905 257.894 17.5134V15.6905C257.894 15.4391 257.7 15.3134 257.506 15.3134H257.441V15.1877H258.346L260.413 17.3877Z" fill="#333333"/>
<path d="M260.607 18.3305H260.413L258.152 15.8791V17.6391C258.152 18.0163 258.217 18.142 258.54 18.142H258.604V18.2677H257.441V18.142H257.506C257.829 18.142 257.894 17.9534 257.894 17.6391V15.8163C257.894 15.5648 257.7 15.4391 257.506 15.4391H257.441V15.3134H258.346L260.284 17.4505V15.8791C260.284 15.5648 260.025 15.502 259.896 15.502H259.767V15.3763H260.93V15.502H260.865C260.671 15.502 260.478 15.502 260.478 16.0048V17.8277C260.607 18.0163 260.607 18.142 260.607 18.3305ZM260.478 18.2677H260.607V15.8791C260.607 15.3763 260.801 15.3134 260.994 15.3134H261.059C260.865 15.2505 260.736 15.2505 260.542 15.2505H259.961C259.961 15.3134 260.025 15.3134 260.025 15.3134C260.155 15.3134 260.413 15.3763 260.413 15.7534V17.3877L258.41 15.1877H257.506C257.506 15.2505 257.571 15.2505 257.571 15.2505C257.764 15.2505 258.023 15.3763 258.023 15.6277V17.4505C258.023 17.8277 257.894 18.0163 257.635 18.0163H257.571C257.764 18.0791 257.958 18.0791 258.152 18.0791H258.733C258.733 18.0163 258.669 18.0163 258.669 18.0163C258.346 18.0163 258.217 17.8905 258.217 17.5134V15.6905L260.478 18.2677Z" fill="#333333"/>
<path d="M261.705 15.4392C261.382 15.4392 261.382 15.502 261.318 15.8163H261.188C261.188 15.6906 261.253 15.5649 261.253 15.4392V15.062H261.382C261.447 15.1877 261.511 15.1877 261.641 15.1877H263.902C264.031 15.1877 264.16 15.1877 264.16 15.062H264.289C264.289 15.1877 264.225 15.3134 264.225 15.4392V15.8163H264.095C264.095 15.6906 264.095 15.4392 263.772 15.4392H263.062V17.7649C263.062 18.0792 263.191 18.142 263.449 18.142H263.514V18.2677H262.028V18.142H262.093C262.351 18.142 262.48 18.142 262.48 17.7649V15.4392H261.705Z" fill="#333333"/>
<path d="M263.514 18.2049H262.028V18.0791H262.093C262.351 18.0791 262.416 18.0791 262.416 17.7649V15.502H261.705H262.481V17.8277C262.481 18.2049 262.351 18.2049 262.093 18.2049H262.028C262.222 18.2677 262.481 18.2677 262.739 18.2677C262.997 18.2049 263.32 18.2049 263.514 18.2049V18.0791H263.45C263.256 18.0791 263.062 18.0163 263.062 17.702V15.3763H263.837C264.16 15.3763 264.16 15.6277 264.16 15.7534H264.289V15.3763C264.289 15.2506 264.289 15.1249 264.354 15.062H264.289C264.289 15.1877 264.16 15.1877 264.031 15.1877H261.77C261.641 15.1877 261.576 15.1877 261.512 15.062H261.447V15.4391C261.447 15.5649 261.447 15.6906 261.382 15.7534H261.447C261.512 15.4391 261.512 15.3763 261.899 15.3763C261.576 15.3763 261.576 15.4391 261.512 15.7534H261.382C261.382 15.6277 261.447 15.502 261.447 15.3763V14.9991H261.576C261.576 15.1249 261.705 15.1249 261.77 15.1249H264.031C264.16 15.1249 264.225 15.1249 264.225 14.9991H264.354C264.354 15.1249 264.289 15.2506 264.289 15.3763V15.7534H264.16C264.16 15.6277 264.16 15.4391 263.837 15.4391H263.127V17.702C263.127 18.0163 263.256 18.0791 263.45 18.0791H263.579V18.2049H263.514Z" fill="#333333"/>
<path d="M264.418 18.0791C264.612 18.0791 264.806 18.0791 264.806 17.8277V15.5648C264.806 15.3134 264.612 15.3134 264.483 15.3134H264.418V15.1877H266.679V15.8791H266.55C266.55 15.6905 266.486 15.4391 266.033 15.4391H265.387V16.5705H265.904C266.163 16.5705 266.227 16.4448 266.227 16.1934H266.356V17.1991H266.227C266.227 16.9477 266.163 16.7591 265.904 16.7591H265.387V17.7648C265.387 18.0163 265.646 18.0163 265.904 18.0163C266.421 18.0163 266.679 17.9534 266.809 17.5134H266.938C266.873 17.7648 266.809 17.9534 266.809 18.2048H264.483V18.0791H264.418Z" fill="#333333"/>
<path d="M266.809 18.2048H264.483V18.0791H264.548C264.677 18.0791 264.871 18.0791 264.871 17.8277V15.5648C264.871 15.3763 264.741 15.3134 264.548 15.3134H264.483V15.1877H266.744V15.8791H266.615C266.615 15.6905 266.55 15.4391 266.098 15.4391H265.517V16.5077H266.033C266.292 16.5077 266.356 16.382 266.356 16.1305H266.486V17.1363H266.356C266.356 16.8848 266.356 16.7591 266.033 16.6963H265.517V17.702C265.517 17.9534 265.775 17.9534 266.033 17.9534C266.55 17.9534 266.809 17.9534 266.938 17.4505H267.067C266.938 17.7648 266.873 18.0163 266.809 18.2048ZM266.809 18.2048C266.873 18.0163 266.873 17.7648 266.938 17.5763H266.873C266.744 18.0791 266.486 18.0791 265.969 18.0791C265.452 18.0791 265.387 18.0791 265.387 17.7648V16.7591H265.969C266.292 16.7591 266.292 16.9477 266.356 17.1991H266.421V16.1934H266.356C266.356 16.4448 266.292 16.5705 265.969 16.5705H265.452V15.3763H266.098C266.55 15.3763 266.615 15.6277 266.679 15.8791H266.744V15.2505H264.548H264.612C264.741 15.2505 264.935 15.2505 264.935 15.502V17.7648C264.935 18.0163 264.741 18.0163 264.612 18.0163H264.548C264.806 18.0791 265.323 18.0791 265.71 18.0791C265.969 18.142 266.486 18.142 266.809 18.142" fill="#333333"/>
<path d="M267.519 15.6905C267.519 15.3763 267.325 15.3763 267.196 15.3763H267.131V15.2505H268.553C269.134 15.2505 269.586 15.3763 269.586 16.0048C269.586 16.6334 269.328 16.6334 268.94 16.7591L269.715 17.8905C269.845 18.0791 269.909 18.142 270.168 18.142V18.2677H269.328C269.005 17.8277 268.682 17.3877 268.423 16.8848H268.1V17.8277C268.1 18.142 268.23 18.142 268.488 18.142H268.553V18.2677H267.131V18.142H267.196C267.39 18.142 267.519 18.0791 267.519 17.8905V15.6905ZM268.1 16.6334H268.294C268.746 16.6334 269.005 16.4448 269.005 15.942C269.005 15.4391 268.746 15.3134 268.359 15.3134H268.1V16.6334Z" fill="#333333"/>
<path d="M270.168 18.2048H269.263C268.94 17.7648 268.617 17.3248 268.359 16.822H268.1V17.702C268.1 18.0163 268.23 18.0163 268.423 18.0163H268.553V18.142H267.131V18.0163H267.196C267.325 18.0163 267.519 17.9534 267.519 17.8277V15.6277C267.519 15.3134 267.39 15.3134 267.196 15.3134H267.067V15.1877H268.488C269.07 15.1877 269.586 15.3134 269.586 15.942C269.586 16.5705 269.328 16.5705 269.005 16.6963L269.78 17.7648C269.909 17.9534 269.974 18.0163 270.168 18.0163V18.2048ZM268.1 16.822H268.423C268.682 17.3248 269.005 17.7648 269.328 18.2048H270.103V18.0791C269.909 18.0791 269.78 18.0163 269.651 17.8277L268.876 16.6963C269.199 16.5705 269.457 16.3191 269.457 15.942C269.457 15.3134 269.005 15.1877 268.423 15.1877H267.067V15.3134H267.131C267.261 15.3134 267.454 15.3134 267.454 15.6905V17.8277C267.454 18.0163 267.261 18.0791 267.131 18.0791H267.067C267.261 18.142 267.454 18.142 267.713 18.142H268.488C268.488 18.0791 268.423 18.0791 268.423 18.0791C268.23 18.0791 268.036 18.0791 268.036 17.702V16.822H268.1ZM268.1 16.6963V15.3763H268.359C268.746 15.3763 269.005 15.6277 269.005 16.0048C269.005 16.382 268.747 16.6963 268.294 16.6963H268.1ZM268.359 16.6334C268.811 16.6334 269.005 16.5077 269.005 16.0048C269.005 15.502 268.746 15.3763 268.359 15.3763H268.1V16.6334H268.359Z" fill="#333333"/>
<path d="M273.204 17.3877V15.7534C273.204 15.3763 272.945 15.3763 272.816 15.3763H272.687V15.2505H273.85C273.85 15.2924 273.85 15.3134 273.85 15.3134C273.656 15.3134 273.462 15.3763 273.462 15.8791V18.2677H273.268L271.007 15.8163V17.5763C271.007 17.9534 271.072 18.0791 271.395 18.0791H271.46V18.2048H270.297V18.0791H270.361C270.684 18.0791 270.749 17.8905 270.749 17.5134V15.6905C270.749 15.4391 270.555 15.3134 270.361 15.3134H270.297V15.1877H271.201L273.204 17.3877Z" fill="#333333"/>
<path d="M273.462 18.3305H273.268L271.007 15.8791V17.6391C271.007 18.0163 271.072 18.142 271.395 18.142H271.46V18.2677H270.297V18.142H270.361C270.684 18.142 270.749 17.9534 270.749 17.6391V15.8163C270.749 15.5648 270.555 15.4391 270.361 15.4391H270.297V15.3134H271.201L273.139 17.4505V15.8791C273.139 15.5648 272.881 15.502 272.752 15.502H272.622V15.3763H273.785V15.502H273.85C273.656 15.502 273.462 15.502 273.462 16.0048V18.3305ZM273.268 18.2677H273.398V15.8791C273.398 15.3763 273.591 15.3134 273.785 15.3134H273.85C273.656 15.2505 273.527 15.2505 273.333 15.2505H272.752C272.752 15.3134 272.816 15.3134 272.816 15.3134C272.945 15.3134 273.204 15.3763 273.204 15.7534V17.3877L271.201 15.1877H270.297V15.3134H270.361C270.555 15.3134 270.814 15.4391 270.814 15.6905V17.5134C270.814 17.8905 270.684 18.0791 270.426 18.0791H270.361C270.555 18.142 270.749 18.142 270.943 18.142H271.524C271.524 18.0791 271.46 18.0791 271.46 18.0791C271.137 18.0791 271.007 17.9534 271.007 17.5763V15.7534L273.268 18.2677Z" fill="#333333"/>
<path d="M274.625 17.5763C274.561 17.702 274.496 17.8277 274.496 17.8906C274.496 18.0163 274.69 18.0163 274.819 18.0163H274.884V18.142H273.915V18.0163C274.108 18.0163 274.238 17.8906 274.302 17.7649L275.013 15.7534C275.077 15.5649 275.142 15.3763 275.207 15.1877C275.336 15.1249 275.53 15.062 275.594 14.9991H275.659C275.659 15.0411 275.68 15.083 275.723 15.1249L276.563 17.3877C276.628 17.5134 276.692 17.702 276.757 17.8277C276.822 17.9534 276.886 18.0163 277.08 18.0163V18.142H275.853V18.0163H275.917C276.046 18.0163 276.176 18.0163 276.176 17.8906C276.176 17.7649 276.111 17.702 276.111 17.5763L275.917 17.0734H274.884L274.625 17.5763ZM275.271 15.6906L274.819 16.8849H275.659L275.271 15.6906Z" fill="#333333"/>
<path d="M276.951 18.2049H275.724V18.0791H275.788C275.917 18.0791 276.047 18.0791 276.047 17.9534C276.047 17.8277 275.982 17.7649 275.982 17.6391L275.788 17.1363H274.819L274.69 17.5763C274.625 17.702 274.561 17.8277 274.561 17.8906C274.561 18.0163 274.755 18.0163 274.884 18.0163H274.948V18.142H273.979V18.0163C274.173 18.0163 274.302 17.9534 274.367 17.7649L275.078 15.7534C275.142 15.5649 275.207 15.3763 275.271 15.1877C275.401 15.1249 275.594 15.062 275.659 14.9991H275.788C275.788 15.0411 275.81 15.083 275.853 15.1249L276.693 17.3877C276.757 17.5134 276.822 17.702 276.886 17.8277C276.951 17.9534 277.016 18.0163 277.145 18.0163H277.209L276.951 18.2049ZM275.724 18.2049H276.951C276.822 18.142 276.693 18.0791 276.628 17.9534C276.563 17.8277 276.499 17.6391 276.434 17.5134L275.594 15.2506C275.594 15.2087 275.573 15.1668 275.53 15.1249C275.465 15.1877 275.271 15.2506 275.142 15.3134C275.142 15.502 275.013 15.6906 274.948 15.8791L274.238 17.8906C274.173 18.0791 274.044 18.2049 273.85 18.2049C273.979 18.2677 274.173 18.2677 274.302 18.2677H274.819C274.69 18.2049 274.496 18.2049 274.496 18.0163C274.496 17.8277 274.561 17.8277 274.625 17.702L274.755 17.262H275.788L275.982 17.7649C276.047 17.8906 276.047 18.0163 276.047 18.0791C276.047 18.2049 275.853 18.2049 275.724 18.2049ZM274.819 16.9477L275.271 15.6906L275.724 16.9477H274.819ZM274.819 16.8849H275.594L275.207 15.7534L274.819 16.8849Z" fill="#333333"/>
<path d="M277.145 15.4392C276.822 15.4392 276.822 15.502 276.757 15.8163H276.628C276.628 15.6906 276.693 15.5649 276.693 15.4392V15.062H276.822C276.886 15.1877 276.951 15.1877 277.08 15.1877H279.341C279.47 15.1877 279.6 15.1877 279.6 15.062H279.729C279.729 15.1877 279.664 15.3134 279.664 15.4392V15.8163H279.535C279.535 15.6906 279.535 15.4392 279.212 15.4392H278.501V17.7649C278.501 18.0792 278.631 18.142 278.889 18.142H278.954V18.2677H277.468V18.142H277.532C277.791 18.142 277.92 18.142 277.92 17.7649V15.4392H277.145Z" fill="#333333"/>
<path d="M278.889 18.2049H277.403V18.0791H277.468C277.726 18.0791 277.791 18.0791 277.791 17.7649V15.502H277.08H277.855V17.8277C277.855 18.2049 277.726 18.2049 277.468 18.2049H277.403C277.597 18.2677 277.855 18.2677 278.114 18.2677C278.437 18.2049 278.695 18.2049 278.889 18.2049V18.0791H278.824C278.63 18.0791 278.437 18.0163 278.437 17.702V15.3763H279.212C279.535 15.3763 279.535 15.6277 279.535 15.7534H279.599V15.3763C279.599 15.2506 279.599 15.1249 279.664 15.062H279.599C279.599 15.1877 279.47 15.1877 279.341 15.1877H277.08C276.951 15.1877 276.886 15.1877 276.822 15.062H276.757V15.4391C276.757 15.5649 276.692 15.6906 276.692 15.7534H276.757C276.822 15.4391 276.822 15.3763 277.209 15.3763C276.886 15.3763 276.886 15.4391 276.822 15.7534H276.692C276.692 15.6277 276.757 15.502 276.757 15.3763V14.9991H276.886C276.886 15.1249 277.015 15.1249 277.08 15.1249H279.341C279.47 15.1249 279.535 15.1249 279.535 14.9991H279.664C279.664 15.1249 279.599 15.2506 279.599 15.3763V15.7534H279.47C279.47 15.6277 279.47 15.4391 279.147 15.4391H278.437V17.702C278.437 18.0163 278.566 18.0791 278.76 18.0791H278.889V18.2049Z" fill="#333333"/>
<path d="M279.858 18.0791C280.052 18.0791 280.246 18.0791 280.246 17.8277V15.5648C280.246 15.3134 280.052 15.3134 279.923 15.3134H279.858V15.1877H281.215V15.3134H281.15C281.021 15.3134 280.827 15.3134 280.827 15.5648V17.8277C280.827 18.0791 281.021 18.0791 281.15 18.0791H281.215V18.2048H279.858V18.0791Z" fill="#333333"/>
<path d="M281.215 18.2048H279.858V18.0791H279.923C280.052 18.0791 280.246 18.0791 280.246 17.8277V15.5648C280.246 15.3763 280.116 15.3134 279.923 15.3134H279.858V15.1877H281.215V15.3134H281.15C280.956 15.3134 280.827 15.3134 280.827 15.5648V17.8277C280.827 18.0163 280.956 18.0791 281.15 18.0791H281.215V18.2048ZM281.215 18.2048C281.215 18.142 281.15 18.142 281.15 18.142C281.021 18.142 280.827 18.142 280.827 17.8905V15.6277C280.827 15.3763 281.021 15.3763 281.15 15.3763H281.215C281.021 15.3134 280.762 15.3134 280.569 15.3134H279.923H279.987C280.116 15.3134 280.31 15.3134 280.31 15.5648V17.8277C280.31 18.0791 280.116 18.0791 279.987 18.0791H279.923C280.116 18.142 280.375 18.142 280.569 18.142C280.762 18.2048 280.956 18.2048 281.215 18.2048Z" fill="#333333"/>
<path d="M282.958 15.1248C283.927 15.1248 284.638 15.6905 284.638 16.6334C284.638 17.5762 283.927 18.2677 282.958 18.2677C281.989 18.2677 281.279 17.6391 281.279 16.6962C281.343 15.8162 282.054 15.1248 282.958 15.1248ZM283.023 18.0791C283.863 18.0791 284.057 17.3248 284.057 16.6962C284.057 16.0677 283.734 15.3134 282.958 15.3134C282.183 15.3134 281.925 16.0048 281.925 16.5705C281.989 17.3248 282.312 18.0791 283.023 18.0791Z" fill="#333333"/>
<path d="M281.344 16.7591C281.344 15.8791 282.054 15.1248 283.023 15.1248C282.054 15.1877 281.344 15.8162 281.344 16.7591C281.408 17.702 282.119 18.2677 283.023 18.2677C283.928 18.2677 284.703 17.6391 284.703 16.6334C284.703 15.6277 283.928 15.1877 283.023 15.1877C283.992 15.1877 284.768 15.7534 284.768 16.6962C284.768 17.6391 284.057 18.3934 283.088 18.3934C282.054 18.2677 281.344 17.6391 281.344 16.7591ZM281.925 16.5705C281.925 16.0048 282.184 15.3134 282.959 15.3134C283.734 15.3134 284.057 16.0677 284.057 16.7591C284.057 17.4505 283.928 18.142 283.023 18.142C283.863 18.142 283.992 17.4505 283.992 16.822C283.992 16.1934 283.669 15.4391 282.894 15.4391C282.248 15.4391 281.99 16.0048 281.925 16.5705C281.99 17.3248 282.313 18.0791 283.023 18.0791C282.313 18.0791 281.925 17.3877 281.925 16.5705Z" fill="#333333"/>
<path d="M287.675 17.3877V15.7534C287.675 15.3763 287.416 15.3763 287.287 15.3763H287.222V15.2505H288.385C288.385 15.3134 288.321 15.3134 288.321 15.3134C288.127 15.3134 287.933 15.3763 287.933 15.8791V18.2677H287.739L285.478 15.8163V17.5763C285.478 17.9534 285.543 18.0791 285.866 18.0791H285.93V18.2048H284.768V18.0791H284.832C285.155 18.0791 285.22 17.8905 285.22 17.5134V15.6905C285.22 15.4391 285.026 15.3134 284.832 15.3134H284.768V15.1877H285.672L287.675 17.3877Z" fill="#333333"/>
<path d="M287.933 18.3305H287.739L285.478 15.8791V17.6391C285.478 18.0163 285.543 18.142 285.866 18.142H285.93V18.2677H284.768V18.142H284.832C285.155 18.142 285.22 17.9534 285.22 17.6391V15.8163C285.22 15.5648 285.026 15.4391 284.832 15.4391H284.768V15.3134H285.672L287.61 17.4505V15.8791C287.61 15.5648 287.352 15.502 287.222 15.502H287.093V15.3763H288.256V15.502H288.191C287.998 15.502 287.804 15.502 287.804 16.0048V17.8277C287.933 18.0163 287.933 18.142 287.933 18.3305ZM287.739 18.2677H287.868V15.8791C287.868 15.3763 288.062 15.3134 288.256 15.3134H288.321C288.127 15.2505 287.998 15.2505 287.804 15.2505H287.222C287.222 15.3134 287.287 15.3134 287.287 15.3134C287.416 15.3134 287.675 15.3763 287.675 15.7534V17.3877L285.672 15.1877H284.768V15.3134H284.832C285.026 15.3134 285.284 15.4391 285.284 15.6905V17.5134C285.284 17.8905 285.155 18.0791 284.897 18.0791H284.832C285.026 18.142 285.22 18.142 285.414 18.142H285.995C285.995 18.0791 285.93 18.0791 285.93 18.0791C285.607 18.0791 285.478 17.9534 285.478 17.5763V15.7534L287.739 18.2677Z" fill="#333333"/>
<path d="M289.095 17.5763C289.031 17.702 288.966 17.8277 288.966 17.8906C288.966 18.0163 289.16 18.0163 289.289 18.0163H289.354V18.142H288.385V18.0163C288.579 18.0163 288.708 17.8906 288.772 17.7649L289.483 15.7534C289.548 15.5649 289.612 15.3763 289.677 15.1877C289.806 15.1249 290 15.062 290.064 14.9991H290.129C290.129 15.0411 290.151 15.083 290.194 15.1249L291.033 17.3877C291.098 17.5134 291.163 17.702 291.227 17.8277C291.292 17.9534 291.356 18.0163 291.55 18.0163V18.142H290.323V18.0163H290.387C290.517 18.0163 290.646 18.0163 290.646 17.8906C290.646 17.7649 290.581 17.702 290.581 17.5763L290.387 17.0734H289.354L289.095 17.5763ZM289.741 15.6906L289.289 16.8849H290.129L289.741 15.6906Z" fill="#333333"/>
<path d="M291.421 18.2049H290.194V18.0791H290.258C290.388 18.0791 290.517 18.0791 290.517 17.9534C290.517 17.8277 290.452 17.7649 290.452 17.6391L290.258 17.1363H289.289L289.16 17.5763C289.096 17.702 289.031 17.8277 289.096 17.8906C289.096 18.0163 289.289 18.0163 289.419 18.0163H289.483V18.142H288.514V18.0163C288.708 18.0163 288.837 17.8906 288.902 17.7649L289.612 15.7534C289.677 15.5649 289.742 15.3763 289.806 15.1877C289.935 15.1249 290.129 15.062 290.194 14.9991H290.323C290.323 15.0411 290.344 15.083 290.388 15.1249L291.227 17.3877C291.292 17.5134 291.357 17.702 291.421 17.8277C291.486 17.9534 291.55 18.0163 291.68 18.0163H291.744L291.421 18.2049ZM290.194 18.2049H291.421C291.292 18.142 291.163 18.0791 291.098 17.9534C291.034 17.8277 290.969 17.6391 290.904 17.5134L290.065 15.2506C290.065 15.2087 290.043 15.1668 290 15.1249C289.935 15.1877 289.742 15.2506 289.612 15.3134C289.612 15.502 289.483 15.6906 289.419 15.8791L288.708 17.8906C288.643 18.0791 288.514 18.2049 288.32 18.2049C288.45 18.2677 288.643 18.2677 288.773 18.2677H289.289C289.16 18.2049 288.966 18.2049 288.966 18.0163C288.966 17.8277 289.031 17.8277 289.096 17.702L289.225 17.262H290.258L290.452 17.7649C290.517 17.8906 290.517 18.0163 290.517 18.0791C290.517 18.2049 290.323 18.2049 290.194 18.2049ZM289.289 16.9477L289.742 15.6906L290.129 16.9477H289.289ZM289.354 16.8849H290.129L289.742 15.7534L289.354 16.8849Z" fill="#333333"/>
<path d="M292.584 17.7648C292.584 17.9534 292.713 18.0163 292.842 18.0163H293.424C293.617 18.0163 293.747 17.8905 293.876 17.7648C293.94 17.6391 294.005 17.5763 294.005 17.4505H294.134C294.07 17.702 294.005 17.9534 293.94 18.2048H291.615V18.0791H291.679C291.809 18.0791 292.002 18.0791 292.002 17.7648V15.5648C292.002 15.3134 291.809 15.3134 291.679 15.3134H291.615V15.1877H292.971V15.3134H292.842C292.648 15.3134 292.519 15.3134 292.519 15.5648V17.7648H292.584Z" fill="#333333"/>
<path d="M293.94 18.2048H291.615V18.0791H291.679C291.809 18.0791 292.002 18.0791 292.002 17.8277V15.6277C292.002 15.4391 291.873 15.3763 291.679 15.3763H291.615V15.2505H292.971V15.3763H292.842C292.648 15.3763 292.584 15.3763 292.584 15.5648V17.7648C292.584 17.9534 292.713 17.9534 292.842 18.0163H293.424C293.617 18.0163 293.747 17.8905 293.811 17.7648C293.876 17.702 293.94 17.5763 293.94 17.4505H294.07C294.07 17.702 294.005 17.9534 293.94 18.2048ZM293.94 18.2048C294.005 17.9534 294.07 17.7648 294.07 17.5134H294.005C294.005 17.6391 293.94 17.702 293.876 17.8277C293.811 17.9534 293.617 18.0163 293.424 18.0791H292.842C292.713 18.0791 292.584 18.0163 292.584 17.8277V15.6277C292.584 15.3763 292.713 15.3763 292.907 15.3763H292.971C292.778 15.3134 292.519 15.3134 292.325 15.3134H291.615H291.679C291.809 15.3134 292.002 15.3134 292.002 15.5648V17.8277C292.002 18.0791 291.809 18.142 291.679 18.142H291.615C292.002 18.2048 292.39 18.2048 292.778 18.2048H293.94Z" fill="#333333"/>
<path d="M294.07 15.062C294.328 15.062 294.522 15.2506 294.522 15.502C294.522 15.7534 294.328 15.942 294.07 15.942C293.811 15.942 293.618 15.7534 293.618 15.502C293.618 15.2506 293.811 15.062 294.07 15.062ZM294.07 15.8792C294.264 15.8792 294.457 15.6906 294.457 15.502C294.457 15.3134 294.328 15.1249 294.07 15.1249C293.811 15.1249 293.682 15.3134 293.682 15.502C293.682 15.7534 293.811 15.8792 294.07 15.8792ZM293.811 15.7534C293.855 15.7534 293.876 15.7325 293.876 15.6906V15.3763C293.876 15.3344 293.855 15.3134 293.811 15.3134H294.07C294.134 15.3134 294.199 15.3763 294.199 15.4392C294.199 15.502 294.134 15.5649 294.07 15.5649V15.6906C294.156 15.7325 294.221 15.7744 294.264 15.8163H294.199C294.134 15.8163 294.134 15.7534 294.005 15.6277H293.941V15.7534H294.005C294.005 15.8163 293.811 15.8163 293.811 15.8163V15.7534ZM294.005 15.5649C294.134 15.5649 294.134 15.502 294.134 15.4392C294.134 15.3763 294.07 15.3134 294.07 15.3134H294.005V15.5649Z" fill="#333333"/>
<path d="M244.134 20.6563C239.87 20.6563 236.317 17.3248 236.317 13.1763C236.317 9.0277 239.87 5.57056 244.134 5.57056H246.137C250.4 5.57056 254.212 8.65056 254.212 13.1763C254.212 17.702 250.336 20.6563 246.137 20.6563H244.134ZM244.134 6.19913C240.193 6.19913 237.028 9.27913 237.028 13.1134C237.028 16.9477 240.193 20.0277 244.134 20.0277C248.075 20.0277 251.24 16.9477 251.24 13.1134C251.24 9.27913 248.075 6.19913 244.134 6.19913ZM242.519 17.1991V9.0277C240.839 9.65627 239.612 11.2277 239.612 13.1134C239.677 14.9363 240.839 16.5706 242.519 17.1991ZM248.656 13.1134C248.656 11.2277 247.429 9.65627 245.749 9.0277V17.1991C247.429 16.5706 248.656 14.9363 248.656 13.1134Z" fill="#0D4E96"/>
<path d="M322.946 16.822H316.874L316.486 16.3191V16.822H315.194V16.0677C315 16.0677 314.806 16.1934 314.613 16.1934H314.419V16.8848H312.481L312.158 16.5077L311.899 16.8848H308.734V13.9305H311.899L312.222 14.3077L312.545 13.9305H323.786V4.12482H305.246V11.4162L305.892 9.97053H307.184L307.507 10.7248V9.97053H309.057L309.251 10.5362L309.445 9.97053H316.228V10.222C316.486 10.0334 316.809 9.97053 317.197 9.97053H319.328L319.651 10.7248V9.97053H320.943L321.331 10.5362V9.97053H322.688V12.9248H321.331L321.008 12.422V12.9248H319.135L318.941 12.4848H318.553L318.359 12.9248H317.197C316.874 12.9248 316.551 12.9248 316.292 12.6734V12.9248H314.354L313.967 12.422V12.9248H306.925L306.731 12.4848H306.344L306.15 12.9248H305.246V22.102H323.786V16.6334C323.592 16.7591 323.334 16.822 323.075 16.822H322.946Z" fill="#006FCF"/>
<path d="M322.946 15.942H321.848V16.4448H322.946C323.398 16.4448 323.721 16.1934 323.721 15.7534C323.721 15.3134 323.463 15.1248 323.011 15.1248H322.494C322.365 15.1248 322.3 15.062 322.3 14.9362C322.3 14.8105 322.365 14.7477 322.494 14.7477H323.463L323.657 14.2448H322.494C322.042 14.2448 321.719 14.4962 321.719 14.9362C321.719 15.3762 321.977 15.5648 322.429 15.5648H322.946C323.075 15.5648 323.14 15.6277 323.14 15.7534C323.14 15.8791 323.075 15.942 322.946 15.942ZM320.943 15.942H319.845V16.4448H320.943C321.396 16.4448 321.719 16.1934 321.719 15.7534C321.719 15.3134 321.46 15.1248 321.008 15.1248H320.491C320.362 15.1248 320.297 15.062 320.297 14.9362C320.297 14.8105 320.362 14.7477 320.491 14.7477H321.46L321.654 14.2448H320.491C320.039 14.2448 319.716 14.4962 319.716 14.9362C319.716 15.3762 319.974 15.5648 320.427 15.5648H320.943C321.073 15.5648 321.137 15.6277 321.137 15.7534C321.137 15.8791 321.073 15.942 320.943 15.942ZM319.587 14.7477V14.2448H317.778V16.382H319.587V15.8791H318.359V15.502H319.522V15.062H318.359V14.6848H319.587V14.7477ZM316.744 14.7477C316.938 14.7477 317.003 14.8734 317.003 14.9362C317.003 14.9991 316.938 15.1248 316.744 15.1248H316.163V14.6848H316.744V14.7477ZM316.163 15.6277H316.357L317.003 16.382H317.713L317.003 15.6277C317.39 15.5648 317.584 15.3134 317.584 14.9362C317.584 14.5591 317.326 14.2448 316.809 14.2448H315.582V16.382H316.163V15.6277ZM314.806 14.9991C314.806 15.1248 314.742 15.2505 314.548 15.2505H313.902V14.7477H314.548C314.742 14.7477 314.806 14.8734 314.806 14.9991ZM313.385 14.2448V16.382H313.967V15.6905H314.613C315.065 15.6905 315.388 15.3762 315.388 14.9991C315.388 14.622 315.129 14.3077 314.613 14.3077H313.385V14.2448ZM312.675 16.382H313.385L312.481 15.3134L313.385 14.2448H312.739L312.222 14.8734L311.706 14.2448H310.995L311.899 15.3134L311.06 16.382H311.706L312.222 15.7534L312.739 16.382H312.675ZM310.93 14.7477V14.2448H309.122V16.382H310.93V15.8791H309.703V15.502H310.866V15.062H309.703V14.6848H310.93V14.7477Z" fill="#006FCF"/>
<path d="M321.396 12.5477H322.042V10.4105H321.46V11.7305L320.62 10.4105H319.91V12.5477H320.491V11.1648L321.396 12.5477ZM318.295 11.6048L318.618 10.8505L318.941 11.6048H318.359H318.295ZM319.264 12.5477H319.91L319.005 10.4105H318.295L317.39 12.5477H317.972L318.166 12.1077H319.135L319.328 12.5477H319.264ZM317.003 12.5477L317.261 12.0448H317.067C316.744 12.0448 316.486 11.8562 316.486 11.4791C316.486 11.1019 316.68 10.9134 317.003 10.9134H317.584V10.4105H316.938C316.228 10.4105 315.905 10.8505 315.905 11.4791C315.905 12.1705 316.292 12.5477 316.938 12.5477M315.194 12.5477H315.775V10.4105H315.194V12.5477ZM314.16 10.8505C314.354 10.8505 314.419 10.9762 314.419 11.0391C314.419 11.1019 314.354 11.2277 314.16 11.2277H313.579V10.7877H314.16V10.8505ZM313.514 11.7934H313.708L314.354 12.5477H315.065L314.354 11.7934C314.742 11.7305 314.936 11.4791 314.936 11.1019C314.936 10.7248 314.677 10.4105 314.16 10.4105H312.933V12.5477H313.514V11.7934ZM312.675 10.8505V10.3477H310.866V12.4848H312.675V11.9819H311.447V11.6048H312.61V11.1648H311.447V10.7877H312.675V10.8505ZM308.928 12.5477H309.38L309.961 10.9762V12.5477H310.478V10.4105H309.574L309.057 11.7934L308.54 10.4105H307.636V12.5477H308.153V10.9762L308.734 12.5477H308.928ZM306.15 11.6048L306.473 10.8505L306.796 11.6048H306.215H306.15ZM307.119 12.5477H307.765L306.861 10.4105H306.15L305.246 12.5477H305.827L306.021 12.1077H306.99L307.184 12.5477H307.119Z" fill="#006FCF"/>
</g>
<defs>
<clipPath id="clip0_4953_38655">
<rect width="323" height="22" fill="white" transform="translate(0.5 -0.000244141)"/>
</clipPath>
</defs>
</svg>
