<svg width="36" height="36" viewBox="0 0 36 36" fill="none" xmlns="http://www.w3.org/2000/svg">
<g clip-path="url(#clip0_7241_89309)">
<g clip-path="url(#clip1_7241_89309)">
<path d="M18.72 17.2798L1.30496 34.6948C0.472461 33.9073 0.0224609 32.8273 0.0224609 31.6573V4.34227C0.0224609 3.14977 0.494961 2.06977 1.34996 1.25977L18.72 17.2798Z" fill="#2196F3"/>
<path d="M33.7725 17.9998C33.7725 19.5748 32.9175 20.9698 31.5 21.7573L26.55 24.5023L20.4075 18.8323L18.72 17.2798L25.2225 10.7773L31.5 14.2423C32.9175 15.0298 33.7725 16.4248 33.7725 17.9998Z" fill="#FFC107"/>
<path d="M18.7201 17.2802L1.3501 1.26022C1.5751 1.03522 1.8676 0.832722 2.1601 0.652722C3.5776 -0.202278 5.2876 -0.224778 6.7501 0.585222L25.2226 10.7777L18.7201 17.2802Z" fill="#4CAF50"/>
<path d="M26.5499 24.5023L6.74993 35.4148C6.05243 35.8198 5.26493 35.9998 4.49993 35.9998C3.68993 35.9998 2.87993 35.7973 2.15993 35.3473C1.84748 35.1683 1.56001 34.9489 1.30493 34.6948L18.7199 17.2798L20.4074 18.8323L26.5499 24.5023Z" fill="#F44336"/>
</g>
</g>
<defs>
<clipPath id="clip0_7241_89309">
<rect width="36" height="36" fill="white"/>
</clipPath>
<clipPath id="clip1_7241_89309">
<rect width="36" height="36" fill="white"/>
</clipPath>
</defs>
</svg>
